<svg xmlns="http://www.w3.org/2000/svg" xmlns:xlink="http://www.w3.org/1999/xlink" version="1.1" x="0px" y="0px" viewBox="0 0 66 82.5" enable-background="new 0 0 66 66" xml:space="preserve"><g><path d="M48.3,34.8c0.4-0.5,0.6-1.2,0.5-2c-0.3,0.5-1,0.7-1.8,0.7C47.6,34,47.8,34.3,48.3,34.8z"/><path d="M50.7,34c-0.4,0.9-1,1.3-2,1.2c0.5,0.4,0.9,0.8,1.4,1.2C50.6,35.8,50.8,35,50.7,34z"/><path d="M52.6,35c-0.4,1-1.1,1.6-2,1.7c0.5,0.4,1.1,0.8,1.7,1.1C52.6,37,52.8,36.1,52.6,35z"/><path d="M54.4,38.9c0.7-1,1.1-1.8,0.9-3.9c-0.6,1.4-1.3,2.5-2.3,3.2C53.4,38.4,53.9,38.7,54.4,38.9z"/><path d="M57.8,35.2c-0.2,1.8-1.3,3-2.7,4c0.6,0.2,1.2,0.4,1.8,0.6C57.9,38.5,58.1,36.9,57.8,35.2z"/><path d="M60.1,35.8c-0.1,2.1-1.1,3.4-2.7,4.1c0.8,0.2,1.6,0.3,2.5,0.4C60.5,38.6,60.7,37.5,60.1,35.8z"/><path d="M63.2,40.4c0.4-1.6,0.4-3-0.3-4.4c-0.1,2-1.1,3.3-2.6,4.4c0.6,0.1,1.2,0.1,1.8,0.1C62.5,40.4,62.9,40.4,63.2,40.4z"/><path d="M50.3,26.9c0.1-0.6,0-1.2-0.1-1.6c-0.5,0.2-1.1,0.3-1.7,0.5C49.4,25.7,50,26.1,50.3,26.9z"/><path d="M52.1,24.7c-0.5,0.2-1.1,0.4-1.6,0.5c1,0.5,2.1,1.3,2.4,1.9C52.9,26.2,52.5,25.2,52.1,24.7z"/><path d="M54.7,25.9c0.1-0.9,0.1-1.6-0.1-2.2c-0.5,0.2-1,0.4-1.5,0.6C53.7,24.6,54.3,25.2,54.7,25.9z"/><path d="M57.2,25.8c0.2-1.1,0.2-2.2-0.1-3.1c-0.5,0.2-0.9,0.4-1.4,0.7C56.2,23.9,57.1,24.9,57.2,25.8z"/><path d="M59.5,25.2c0.5-1.4,0.4-2.4,0-3.7c-0.5,0.3-1,0.6-1.6,0.9C59.2,23.2,59.4,23.9,59.5,25.2z"/><path d="M60,21.1c1.2,0.9,2,2.2,2.1,3.9c0.7-1.4,0.3-3.4-0.3-5.1C61.3,20.3,60.7,20.7,60,21.1z"/><path d="M64.2,18c-0.7,0.6-1.4,1.2-2.2,1.8c1.4,0.8,2.4,2.1,2.8,3.9C65.3,22.1,64.9,19.8,64.2,18z"/><path d="M35,18.9c-1,0.7-0.5,2.4,0.5,2.7c0.5,0.2,1.1,0,1.5-0.4c0.2-0.2,0.3-0.5,0.4-0.8C37.8,19.1,36.1,18.1,35,18.9z M36,21.2   c-0.2,0-0.3-0.3-0.3-0.8c0-0.4,0.2-0.8,0.3-0.8c0.2,0,0.3,0.3,0.3,0.8C36.4,20.8,36.2,21.2,36,21.2z"/><path d="M63.4,41.4c-10.2,0.5-14.6-5-18.1-8c-1.2-1-1.8-2.2-1.9-3.5c-0.1-2.2,1.7-4.4,3.9-4.9c7.9-1.8,13.8-5.1,17.3-8.8   c-0.2-2.9-1.5-4.9-4.3-5.7c-6.6-1.9-16.8,4.3-20.2,3.2c-2.9-0.9-4.7-1.8-7.7-0.2c-1.3,0.7-2.9,1-4.4,0.8c-5.6-0.8-9.9,0.1-13,3.1   c-4.5,4.3-8.4,12.5-14,14.5v24h7.4c3.3-6.6,10.2-8.5,16.1-12.4c1.8,0.5,3.2,0.3,4.2-1.3c1.2,0.7,2.6,0.2,3.5-1.2   c-2.3-2.7-2.1-6.7-1-9.8c0.1-0.2,0.3-0.3,0.5-0.2c0.2,0.1,0.3,0.3,0.3,0.5l0,0c-1.2,3.9-0.7,8.6,3.1,10.1c0.4,0.2,4.4,0.8,5,1   c3.3,0.8,9.7,0.2,15.3,2.2c4.5,1.6,6.7,0.8,8.5-2.7C64,41.7,63.8,41.3,63.4,41.4z M39,20.8c-0.1,0.6-0.4,1.1-0.8,1.6   c-0.8,0.8-2,1.1-3.1,0.8C33,22.5,32.1,19,34,17.6C36.3,16,39.5,18.1,39,20.8z"/></g><text x="0" y="81" fill="#000000" font-size="5px" font-weight="bold" font-family="'Helvetica Neue', Helvetica, Arial-Unicode, Arial, Sans-serif">Created by Vectors Market</text><text x="0" y="86" fill="#000000" font-size="5px" font-weight="bold" font-family="'Helvetica Neue', Helvetica, Arial-Unicode, Arial, Sans-serif">from the Noun Project</text></svg>