<svg xmlns="http://www.w3.org/2000/svg" viewBox="0 0 175.15 228.18"><defs><style>.cls-1{fill:#fff;stroke:#000;stroke-miterlimit:10;}</style></defs><title>Asset 4</title><g id="Layer_2" data-name="Layer 2"><g id="Layer_2-2" data-name="Layer 2"><path class="cls-1" d="M174.51,102.31C174,60,174.68,38,157.83,20.65,135.46-2.42,100.22,0,82.32,1.23,60,2.76,22.7,5.32,7.17,34.53c-12,22.56-7.38,54.25,10.46,71.34,12.42,11.89,27.62,13.25,54.22,15.22a263.12,263.12,0,0,0,81.35-6.87,109.94,109.94,0,0,1,8.08,39.85c.19,14.53.6,40.28-17.82,58.08-10.69,10.32-23.69,14.09-32.89,15.5,8.19.24,19.35-.77,30-6.86C176.19,200.37,175,140.49,174.51,102.31Z"/></g></g></svg>