<svg height="480pt" viewBox="-46 0 480 480" width="480pt" xmlns="http://www.w3.org/2000/svg"><path d="m368 310h-348c-11.046875 0-20-8.953125-20-20v-48c0-11.046875 8.953125-20 20-20h348c11.046875 0 20 8.953125 20 20v48c0 11.046875-8.953125 20-20 20zm0 0" fill="#ccc033"/><path d="m56 266c0-11.042969 8.953125-20 20-20h312v-4c0-11.042969-8.953125-20-20-20h-348c-11.046875 0-20 8.957031-20 20v48c0 11.042969 8.953125 20 20 20h36zm0 0" fill="#99af17"/><path d="m342 479.5h-296v-161.574219c0-21.222656 17.203125-38.425781 38.425781-38.425781h219.148438c21.222656 0 38.425781 17.203125 38.425781 38.425781zm0 0" fill="#e58d23"/><path d="m140.425781 279.5h-56c-21.222656 0-38.425781 17.203125-38.425781 38.425781v161.574219h56v-161.574219c0-21.222656 17.203125-38.425781 38.425781-38.425781zm0 0" fill="#bf6c0d"/><path d="m360 480h-332v-33.519531c0-61.089844 49.523438-110.617188 110.617188-110.617188h110.765624c61.09375 0 110.621094 49.523438 110.621094 110.617188v33.519531zm0 0" fill="#ccc033"/><path d="m337.867188 452.542969c-3.3125 0-6-2.6875-6-6 0-34.085938-20.492188-64.222657-52.207032-76.777344-3.082031-1.21875-4.589844-4.707031-3.371094-7.789063 1.21875-3.078124 4.707032-4.589843 7.789063-3.371093 36.320313 14.378906 59.792969 48.894531 59.792969 87.933593-.003906 3.320313-2.6875 6.003907-6.003906 6.003907zm0 0" fill="#eacf32"/><path d="m166.742188 447.878906c0-13.769531-11.148438-24.929687-24.898438-24.929687-13.753906 0-24.902344 11.160156-24.902344 24.929687 0 13.765625 11.148438 24.925782 24.902344 24.925782 13.75 0 24.898438-11.160157 24.898438-24.925782zm0 0" fill="#99af17"/><path d="m105.464844 457.625c0-61.128906 49.5-110.679688 110.558594-110.679688h81.671874c-14.582031-7.09375-30.949218-11.078124-48.25-11.078124h-110.890624c-61.058594 0-110.554688 49.550781-110.554688 110.675781v33.457031h77.464844zm0 0" fill="#99af17"/><path d="m98.863281 230.140625h38.066407v-134.429687c0-12.492188-10.128907-22.617188-22.621094-22.617188h-15.445313c-12.492187 0-22.621093 10.125-22.621093 22.617188v111.808593c-.003907 12.492188 10.125 22.621094 22.621093 22.621094zm0 0" fill="#8c4c17"/><path d="m289.585938 61.550781h-15.453126c-12.492187 0-22.617187 10.046875-22.617187 22.4375v19.535157c24.476563 18.058593 40.332031 46.96875 40.332031 79.554687v35.410156c11.429688-1.125 20.355469-10.6875 20.355469-22.324219v-112.179687c0-12.386719-10.128906-22.433594-22.617187-22.433594zm0 0" fill="#8c4c17"/><path d="m122.871094 203.1875c0-17.699219-14.464844-32.050781-32.308594-32.050781-17.839844 0-32.304688 14.351562-32.304688 32.050781 0 17.703125 14.464844 32.050781 32.304688 32.050781 17.84375 0 32.308594-14.347656 32.308594-32.050781zm0 0" fill="#ffd59a"/><path d="m195.097656 396.433594h-2.199218c-24.804688 0-44.914063-20.109375-44.914063-44.914063v-109.578125h92.027344v109.578125c0 24.804688-20.109375 44.914063-44.914063 44.914063zm0 0" fill="#ffeacf"/><path d="m179.84375 350.789062v-108.847656h-31.859375v108.847656c0 25.207032 20.601563 45.644532 46.011719 45.644532 5.601562 0 10.964844-.992188 15.929687-2.8125-17.558593-6.425782-30.082031-23.175782-30.082031-42.832032zm0 0" fill="#ffd59a"/><path d="m196.457031 318.054688h-4.472656c-53.929687 0-97.648437-43.71875-97.648437-97.652344v-54.089844c0-53.929688 43.71875-97.652344 97.648437-97.652344h4.472656c53.929688 0 97.652344 43.722656 97.652344 97.652344v54.089844c0 53.933594-43.722656 97.652344-97.652344 97.652344zm0 0" fill="#ffeacf"/><path d="m129.386719 206.742188v-49.550782c0-3.78125.214843-7.511718.625-11.179687.632812-5.683594 5.507812-9.949219 11.230469-9.949219h147.472656c-13.46875-39.214844-50.683594-67.402344-94.492188-67.402344-4.289062 0-8.511718.28125-12.65625.804688.003906-.003906.011719-.007813.019532-.011719-.320313.039063-.636719.101563-.953126.144531-1.054687.140625-2.105468.292969-3.148437.46875-.503906.085938-1.003906.183594-1.507813.277344-.921874.167969-1.839843.347656-2.753906.542969-.53125.113281-1.058594.230469-1.585937.351562-.890625.207031-1.773438.425781-2.652344.652344-.515625.136719-1.03125.269531-1.542969.410156-.914062.253907-1.816406.523438-2.71875.804688-.460937.140625-.921875.277343-1.378906.421875-1.078125.351562-2.148438.726562-3.210938 1.109375-.261718.097656-.53125.179687-.792968.277343-1.320313.492188-2.628906 1.015626-3.925782 1.5625-.339843.140626-.667968.296876-1.003906.445313-.949218.410156-1.890625.832031-2.824218 1.269531-.464844.21875-.925782.453125-1.390626.679688-.792968.390625-1.582031.785156-2.359374 1.195312-.496094.261719-.988282.527344-1.476563.796875-.738281.40625-1.476563.820313-2.207031 1.242188-.488282.28125-.976563.566406-1.457032.859375-.734374.441406-1.457031.894531-2.175781 1.355468-.457031.289063-.914062.578126-1.363281.875-.792969.523438-1.574219 1.070313-2.351562 1.613282-.355469.253906-.71875.496094-1.074219.75-1.101563.796875-2.183594 1.613281-3.25 2.453125-.332031.261719-.648438.53125-.976563.796875-.742187.601562-1.484375 1.207031-2.210937 1.824218-.433594.371094-.855469.753907-1.28125 1.132813-.605469.535156-1.207031 1.074219-1.796875 1.625-.449219.414063-.890625.839844-1.328125 1.261719-.554688.535156-1.105469 1.074218-1.648438 1.625-.4375.441406-.871093.886718-1.300781 1.335937-.53125.558594-1.050781 1.121094-1.570312 1.6875-.414063.457031-.832032.910157-1.238282 1.375-.53125.605469-1.050781 1.222657-1.566406 1.84375-.367188.4375-.746094.871094-1.105469 1.320313-.757812.9375-1.496093 1.890625-2.21875 2.859375-.375.5-.738281 1.011719-1.105469 1.519531-.503906.703125-1.011718 1.402344-1.5 2.121094-.359374.523437-.699218 1.058594-1.046874 1.589844-.40625.621093-.816407 1.246093-1.207032 1.875-.351562.566406-.695312 1.140624-1.035156 1.710937-.371094.617187-.730469 1.238281-1.085938 1.859375-.332031.589844-.660156 1.179688-.984374 1.777344-.339844.628906-.667969 1.261718-.996094 1.902344-.308594.601562-.617188 1.203124-.914063 1.808593-.320312.664063-.628906 1.332031-.933593 2.003907-.277344.59375-.554688 1.183593-.820313 1.789062-.351563.8125-.683594 1.636719-1.015625 2.457031-.363281.898438-.714844 1.796875-1.050781 2.707031-.273438.746094-.558594 1.488282-.816407 2.238282h.007813c-3.496094 10.171875-5.402344 21.074218-5.402344 32.429687v49.617188c0 54.921875 43.878907 100.460937 98.828125 101.027343 17.667969.183594 34.292969-4.21875 48.75-12.085937-4.359375.550781-8.804687.820313-13.324218.789063-55.105469-.371094-99.199219-46.015626-99.199219-101.09375zm0 0" fill="#ffd59a"/><path d="m150.117188 192.972656c0-6.8125-5.566407-12.339844-12.4375-12.339844-6.867188 0-12.4375 5.527344-12.4375 12.339844 0 6.816406 5.570312 12.339844 12.4375 12.339844 6.871093 0 12.4375-5.523438 12.4375-12.339844zm0 0" fill="#a56021"/><path d="m263.199219 192.972656c0-6.8125-5.570313-12.339844-12.4375-12.339844-6.871094 0-12.441407 5.527344-12.441407 12.339844 0 6.816406 5.570313 12.339844 12.441407 12.339844 6.867187 0 12.4375-5.523438 12.4375-12.339844zm0 0" fill="#a56021"/><path d="m360 480h-332v-33.519531c0-61.089844 49.523438-110.617188 110.617188-110.617188h110.765624c61.09375 0 110.621094 49.523438 110.621094 110.617188v33.519531zm0 0" fill="#ff624b"/><path d="m337.867188 452.542969c-3.3125 0-6-2.6875-6-6 0-20.984375-7.90625-40.996094-22.265626-56.351563-2.261718-2.417968-2.132812-6.214844.285157-8.480468 2.421875-2.261719 6.21875-2.132813 8.480469.285156 16.445312 17.585937 25.5 40.511718 25.5 64.546875 0 3.316406-2.683594 6-6 6zm0 0" fill="#ff9079"/><path d="m168.121094 454.804688c0 9.941406-8.058594 18-18 18s-18-8.058594-18-18c0-9.941407 8.058594-18 18-18s18 8.058593 18 18zm0 0" fill="#ff4b34"/><path d="m105.464844 457.625c0-61.128906 49.5-110.679688 110.558594-110.679688h81.671874c-14.582031-7.09375-30.949218-11.078124-48.25-11.078124h-110.890624c-61.058594 0-110.554688 49.550781-110.554688 110.675781v33.457031h77.464844zm0 0" fill="#ff4b34"/><path d="m98.863281 230.140625h38.066407v-134.429687c0-12.492188-10.128907-22.617188-22.621094-22.617188h-15.445313c-12.492187 0-22.621093 10.125-22.621093 22.617188v111.808593c-.003907 12.492188 10.125 22.621094 22.621093 22.621094zm0 0" fill="#8c4c17"/><path d="m289.585938 61.550781h-15.453126c-12.492187 0-22.617187 10.046875-22.617187 22.4375v19.535157c24.476563 18.058593 40.332031 46.96875 40.332031 79.554687v35.410156c11.429688-1.125 20.355469-10.6875 20.355469-22.324219v-112.179687c0-12.386719-10.128906-22.433594-22.617187-22.433594zm0 0" fill="#8c4c17"/><path d="m326.109375 203.1875c0 17.671875-14.328125 32-32 32-17.675781 0-32-14.328125-32-32s14.324219-32 32-32c17.671875 0 32 14.328125 32 32zm0 0" fill="#ffeacf"/><path d="m122.5625 203.1875c0 17.671875-14.324219 32-32 32-17.671875 0-32-14.328125-32-32s14.328125-32 32-32c17.675781 0 32 14.328125 32 32zm0 0" fill="#ffd59a"/><path d="m195.097656 396.433594h-2.199218c-24.804688 0-44.914063-20.109375-44.914063-44.914063v-109.578125h92.027344v109.578125c0 24.804688-20.109375 44.914063-44.914063 44.914063zm0 0" fill="#ffeacf"/><path d="m179.84375 350.789062v-108.847656h-31.859375v108.847656c0 25.207032 20.601563 45.644532 46.011719 45.644532 5.601562 0 10.964844-.992188 15.929687-2.8125-17.558593-6.425782-30.082031-23.175782-30.082031-42.832032zm0 0" fill="#ffd59a"/><path d="m196.457031 318.054688h-4.472656c-53.929687 0-97.648437-43.71875-97.648437-97.652344v-54.089844c0-53.929688 43.71875-97.652344 97.648437-97.652344h4.472656c53.929688 0 97.652344 43.722656 97.652344 97.652344v54.089844c0 53.933594-43.722656 97.652344-97.652344 97.652344zm0 0" fill="#ffeacf"/><path d="m129.386719 206.742188v-49.550782c0-3.78125.214843-7.511718.625-11.179687.632812-5.683594 5.507812-9.949219 11.230469-9.949219h147.472656c-13.46875-39.214844-50.683594-67.402344-94.492188-67.402344-4.289062 0-8.511718.28125-12.65625.804688.003906-.003906.011719-.007813.019532-.011719-.320313.039063-.636719.101563-.953126.144531-1.054687.140625-2.105468.292969-3.148437.46875-.503906.085938-1.003906.183594-1.507813.277344-.921874.167969-1.839843.347656-2.753906.542969-.53125.113281-1.058594.230469-1.585937.351562-.890625.207031-1.773438.425781-2.652344.652344-.515625.136719-1.03125.269531-1.542969.410156-.914062.253907-1.816406.523438-2.71875.804688-.460937.140625-.921875.277343-1.378906.421875-1.078125.351562-2.148438.726562-3.210938 1.109375-.261718.097656-.53125.179687-.792968.277343-1.320313.492188-2.628906 1.015626-3.925782 1.5625-.339843.140626-.667968.296876-1.003906.445313-.949218.410156-1.890625.832031-2.824218 1.269531-.464844.21875-.925782.453125-1.390626.679688-.792968.390625-1.582031.785156-2.359374 1.195312-.496094.261719-.988282.527344-1.476563.796875-.738281.40625-1.476563.820313-2.207031 1.242188-.488282.28125-.976563.566406-1.457032.859375-.734374.441406-1.457031.894531-2.175781 1.355468-.457031.289063-.914062.578126-1.363281.875-.792969.523438-1.574219 1.070313-2.351562 1.613282-.355469.253906-.71875.496094-1.074219.75-1.101563.796875-2.183594 1.613281-3.25 2.453125-.332031.261719-.648438.53125-.976563.796875-.742187.601562-1.484375 1.207031-2.210937 1.824218-.433594.371094-.855469.753907-1.28125 1.132813-.605469.535156-1.207031 1.074219-1.796875 1.625-.449219.414063-.890625.839844-1.328125 1.261719-.554688.535156-1.105469 1.074218-1.648438 1.625-.4375.441406-.871093.886718-1.300781 1.335937-.53125.558594-1.050781 1.121094-1.570312 1.6875-.414063.457031-.832032.910157-1.238282 1.375-.53125.605469-1.050781 1.222657-1.566406 1.84375-.367188.4375-.746094.871094-1.105469 1.320313-.757812.9375-1.496093 1.890625-2.21875 2.859375-.375.5-.738281 1.011719-1.105469 1.519531-.503906.703125-1.011718 1.402344-1.5 2.121094-.359374.523437-.699218 1.058594-1.046874 1.589844-.40625.621093-.816407 1.246093-1.207032 1.875-.351562.566406-.695312 1.140624-1.035156 1.710937-.371094.617187-.730469 1.238281-1.085938 1.859375-.332031.589844-.660156 1.179688-.984374 1.777344-.339844.628906-.667969 1.261718-.996094 1.902344-.308594.601562-.617188 1.203124-.914063 1.808593-.320312.664063-.628906 1.332031-.933593 2.003907-.277344.59375-.554688 1.183593-.820313 1.789062-.351563.8125-.683594 1.636719-1.015625 2.457031-.363281.898438-.714844 1.796875-1.050781 2.707031-.273438.746094-.558594 1.488282-.816407 2.238282h.007813c-3.496094 10.171875-5.402344 21.074218-5.402344 32.429687v49.617188c0 54.921875 43.878907 100.460937 98.828125 101.027343 17.667969.183594 34.292969-4.21875 48.75-12.085937-4.359375.550781-8.804687.820313-13.324218.789063-55.105469-.371094-99.199219-46.015626-99.199219-101.09375zm0 0" fill="#ffd59a"/><path d="m149.679688 192.972656c0 6.628906-5.371094 12-12 12-6.628907 0-12-5.371094-12-12 0-6.625 5.371093-12 12-12 6.628906 0 12 5.375 12 12zm0 0" fill="#a56021"/><path d="m262.761719 192.972656c0 6.628906-5.375 12-12 12-6.628907 0-12-5.371094-12-12 0-6.625 5.371093-12 12-12 6.625 0 12 5.375 12 12zm0 0" fill="#a56021"/><path d="m312.128906 105.902344h-236.257812v-45.542969c0-33.335937 27.023437-60.359375 60.359375-60.359375h115.535156c33.335937 0 60.359375 27.023438 60.359375 60.359375v45.542969zm0 0" fill="#e58d23"/><path d="m294.515625 66.390625c-3.3125 0-6-2.683594-6-6 0-20.269531-16.46875-36.761719-36.714844-36.761719-3.3125 0-6-2.683594-6-6 0-3.3125 2.6875-6 6-6 26.863281 0 48.714844 21.878906 48.714844 48.761719 0 3.316406-2.6875 6-6 6zm0 0" fill="#ffa730"/><path d="m222.710938 87.101562h-57.425782c-8.707031 0-15.765625-7.0625-15.765625-15.769531v-.695312c0-8.707031 7.058594-15.769531 15.765625-15.769531h57.425782c8.710937 0 15.769531 7.0625 15.769531 15.769531v.695312c0 8.707031-7.058594 15.769531-15.769531 15.769531zm0 0" fill="#ffd551"/><path d="m197.734375 0h-61.636719c-33.261718 0-60.226562 26.992188-60.226562 60.292969v45.609375h61.640625v-45.609375c0-33.300781 26.964843-60.292969 60.222656-60.292969zm0 0" fill="#bf6c0d"/><path d="m76.09375 105.902344h236.253906v18.304687c0 26.300781-21.320312 47.625-47.625 47.625h-141.003906c-26.304688 0-47.625-21.320312-47.625-47.625zm0 0" fill="#ffa730"/><path d="m137.730469 124.257812v-18.359374h-61.636719v18.359374c0 26.273438 21.273438 47.570313 47.515625 47.570313h61.640625c-26.242188 0-47.519531-21.296875-47.519531-47.570313zm0 0" fill="#e58d23"/><path d="m192.40625 138.867188c0 9.941406-8.058594 18-18 18-9.9375 0-18-8.058594-18-18 0-9.941407 8.0625-18 18-18 9.941406 0 18 8.058593 18 18zm0 0" fill="#e58d23"/><path d="m125.78125 479.5h-40v-146c0-2.210938 1.789062-4 4-4h32c2.210938 0 4 1.789062 4 4zm0 0" fill="#ffb74b"/><path d="m305.78125 479.5h-40v-146c0-2.210938 1.789062-4 4-4h32c2.210938 0 4 1.789062 4 4zm0 0" fill="#ffb74b"/><g fill="#ffa730"><path d="m109.78125 329.5h-20c-2.210938 0-4 1.792969-4 4v146h20v-146c0-2.207031 1.789062-4 4-4zm0 0"/><path d="m289.78125 329.5h-20c-2.210938 0-4 1.792969-4 4v146h20v-146c0-2.207031 1.789062-4 4-4zm0 0"/></g></svg>