<svg xmlns="http://www.w3.org/2000/svg" viewBox="0 0 178.86 184.16"><defs><style>.cls-1{fill:none;}.cls-2{fill:#336699;}</style></defs><title>Asset 2</title><g id="Layer_2" data-name="Layer 2"><g id="Layer_2-2" data-name="Layer 2"><path class="cls-1" d="M37.46,78.07l0,0c-.81,2.15-1.52,4.33-2.15,6.53h0Q36.27,81.29,37.46,78.07Z"/><path class="cls-1" d="M31.87,103.53h0c-.14,1.46-.24,2.92-.33,4.39h0C31.62,106.45,31.73,105,31.87,103.53Z"/><path class="cls-1" d="M31.28,117c0,.85,0,1.7,0,2.55,0-.85,0-1.7,0-2.55Z"/><path class="cls-1" d="M46.13,61.83l0-.08c-.77,1.08-1.5,2.17-2.21,3.29H44C44.65,64,45.38,62.88,46.13,61.83Z"/><path class="cls-2" d="M110.43,0c-.64,4.83,1.84,11.2,2.44,16.16-5.4-3.28-10.68-7.1-16.31-9.77-1.42,4.83-2.35,11.23-1.3,16.27C89.46,19.61,82,17.86,75.92,16c-.89,4.69-2.57,12.48-1.16,17.26C68.58,31.5,63,28.79,57,26.89a59.58,59.58,0,0,0,5.76,17c-3.35,1.64-10-1.35-13.71-2-5-.91-9.59-2.63-14.54-3.83-.45,5.56,3.06,10.8,5.93,15.34C42,55.78,45,58.71,46.1,61.75c8.88-12.38,21.56-21.87,35-29C91.77,27,103.3,23.6,114.73,19.59c3.3-1.15,6.53-2.52,9.76-3.91l-.54-.84C120.08,9.1,114.77,5.17,110.43,0Z"/><path class="cls-2" d="M30.64,107.6c-4.21,1.12-8.47,2.11-12.62,3.21,2.1,3.79,7.53,5.12,12.15,5.86C30.24,113.64,30.39,110.61,30.64,107.6Z"/><path class="cls-2" d="M43.89,65c-8.17-.74-16.31-1.6-24.77-1.73C24.28,68.76,31.53,73,37.43,78.05c.49-1.3,1-2.59,1.56-3.87A66.11,66.11,0,0,1,43.89,65Z"/><path class="cls-2" d="M9.6,89.42c5.64,6.63,15.38,9,22.26,14.1a103.63,103.63,0,0,1,3.42-18.94C28.06,87.89,15,87.54,9.6,89.42Z"/><path class="cls-2" d="M30.3,119.54v.22c-4.79,2.83-10.22,4.75-14.85,8s-8,8.67-13.46,10.74c3.14,2.34,23.75,3.67,30.13,7.4.16,1.52.33,3,.51,4.54-4,3.5-15.31,7.45-17.8,8.82-5,2.74-11.23,4.39-14.83,9,11.13,5.8,25.1,2.14,37.3,3.43-3.08-8.36-4.35-18.12-5.23-26.31C31.17,136.89,30.43,128.22,30.3,119.54Z"/><path class="cls-2" d="M175.42,51.53c-3.84-16.91-8.36-47.28-32.51-40a134.25,134.25,0,0,0-14.42,5.57l-1.14.49-.06-.09c-3.23,1.39-6.46,2.75-9.76,3.91-11.42,4-23,7.43-33.64,13.12-13.42,7.17-26.1,16.65-35,29l0,.07c-.76,1.05-1.48,2.13-2.18,3.22h-.07A67.32,67.32,0,0,0,41.79,76c-.55,1.28-1.07,2.56-1.56,3.86l0,0c-.81,2.14-1.52,4.31-2.15,6.49l0,0a104.33,104.33,0,0,0-3.42,18.94h0c-.13,1.46-.24,2.92-.33,4.39h0c-.18,3-.26,6-.25,9.08,0,.85,0,1.7,0,2.55.13,8.67.87,17.35,1.77,25.79.88,8.18,2.14,18,5.23,26.3.33,0,.66.07,1,.12,3.67,6.3,9.73,10.46,20.31,10.58,17.93.21,36.39-1.8,48-7.24.5-.24,7-3.76,7-3.76-1.44-3.44-2.56-7.75-4-11.5-5.69-14.73-9.18-35.36,10-40.39,15.21-4,37.77,2.68,44.45-15.51-6.57-1.68-14.71-.42-21.57-1.1-8.79-.86-20.73-2.14-29.23.54,14.71-7,30.44-10.3,44.47-19,5.85-3.64,13.41-8.5,16.39-15C180.62,65.26,176.78,57.51,175.42,51.53ZM80.71,61.16a3.67,3.67,0,0,1-2.52,1.73,3.89,3.89,0,0,1-2.88-.58A4,4,0,0,1,74,57.43a3.45,3.45,0,0,1,1.88-1.78,3.31,3.31,0,0,1,1.84-.1,4.28,4.28,0,0,1,1.57.78,4.21,4.21,0,0,1,1.21,1.05,3.59,3.59,0,0,1,.63,1.89A3.5,3.5,0,0,1,80.71,61.16Z"/></g></g></svg>