<svg xmlns="http://www.w3.org/2000/svg" fill="#eef3f9" stroke="#5591d6" stroke-width="1.2" viewBox="0 0 64 80" x="0px" y="0px"><g><polygon points="13.618 34 16.382 34 15 31.236 13.618 34"/><rect x="6" y="56" width="4" height="4"/><polygon points="19.618 34 22.382 34 21 31.236 19.618 34"/><polygon points="28.382 34 27 31.236 25.618 34 28.382 34"/><polygon points="34 25.382 34 22.618 31.236 24 34 25.382"/><polygon points="34 16.618 31.236 18 34 19.382 34 16.618"/><rect x="18" y="56" width="4" height="4"/><rect x="46" y="56" width="4" height="4"/><path d="M17,44H4V54H27.95508A11.01525,11.01525,0,0,0,17,44Zm-5,7H10a1,1,0,0,1,0-2h2a1,1,0,0,1,0,2Zm4-3H14a1,1,0,0,1,0-2h2a1,1,0,0,1,0,2Zm4,3H18a1,1,0,0,1,0-2h2a1,1,0,0,1,0,2Z"/><rect x="36" y="56" width="4" height="4"/><circle cx="45" cy="9" r="1"/><path d="M54.68359,10.05176l5.246-1.74866A4.99214,4.99214,0,0,0,55,4H47A11.01245,11.01245,0,0,0,36,15V35a1.04228,1.04228,0,0,1-1.02051,1.02051h-.001L10.999,36A7.00513,7.00513,0,0,0,4.0799,42H17A13.009,13.009,0,0,1,29.94934,54H50V15.125a.97227.97227,0,0,1,.161-.51184A.99908.99908,0,0,1,51.083,14H55a4.99036,4.99036,0,0,0,4.75433-3.53107l-4.43792,1.47931a.99964.99964,0,0,1-.63282-1.89648ZM45,12a3,3,0,1,1,3-3A3.00328,3.00328,0,0,1,45,12Z"/></g></svg>