<svg xmlns="http://www.w3.org/2000/svg" xmlns:xlink="http://www.w3.org/1999/xlink" version="1.1" x="0px" y="0px" viewBox="0 0 100 100" style="enable-background:new 0 0 100 100;" xml:space="preserve"><style type="text/css">
	.st0{fill:none;stroke:#000000;stroke-width:2;stroke-linecap:round;stroke-linejoin:round;stroke-miterlimit:10;}
	.st1{fill:none;stroke:#000000;stroke-width:2;stroke-linecap:round;stroke-linejoin:round;}
	.st2{fill:none;stroke:#000000;stroke-width:2;stroke-linecap:round;stroke-linejoin:round;stroke-dasharray:2.9177,3.8902;}
	.st3{fill:none;stroke:#000000;stroke-width:2;stroke-linecap:round;stroke-linejoin:round;stroke-dasharray:2.9655,3.954;}
	.st4{fill:none;stroke:#000000;stroke-width:2;stroke-linecap:round;stroke-linejoin:round;stroke-dasharray:2.7633,3.6844;}
	.st5{fill:none;stroke:#000000;stroke-width:2;stroke-miterlimit:10;}
</style><path d="M66.5,64.2c-0.9-0.4-1.8-0.8-2.7-1.2c-0.5-0.2-1.1,0-1.3,0.5s0,1.1,0.5,1.3c0.9,0.4,1.8,0.8,2.7,1.1  c0.1,0.1,0.3,0.1,0.4,0.1c0.4,0,0.7-0.2,0.9-0.6C67.2,65,67,64.4,66.5,64.2z"/><path d="M60.1,61.5c-0.9-0.4-1.8-0.7-2.7-1.1c-0.5-0.2-1.1,0.1-1.3,0.6c-0.2,0.5,0.1,1.1,0.6,1.3c0.9,0.4,1.8,0.7,2.7,1.1  c0.1,0,0.2,0.1,0.4,0.1c0.4,0,0.8-0.2,0.9-0.6C60.9,62.3,60.6,61.7,60.1,61.5z"/><path d="M72.6,67.2c-0.9-0.5-1.7-0.9-2.6-1.4c-0.5-0.2-1.1,0-1.3,0.5c-0.2,0.5,0,1.1,0.5,1.3c0.9,0.4,1.7,0.9,2.6,1.3  c0.2,0.1,0.3,0.1,0.5,0.1c0.4,0,0.7-0.2,0.9-0.5C73.3,68.1,73.1,67.4,72.6,67.2z"/><path d="M53.8,59.1C52.9,58.7,52,58.4,51,58c-0.5-0.2-1.1,0.1-1.3,0.6c-0.2,0.5,0.1,1.1,0.6,1.3c0.9,0.4,1.8,0.7,2.7,1.1  c0.1,0,0.2,0.1,0.4,0.1c0.4,0,0.8-0.2,0.9-0.6C54.5,59.8,54.3,59.3,53.8,59.1z"/><path d="M76.1,69.2c-0.5-0.3-1.1-0.2-1.4,0.3c-0.3,0.5-0.2,1.1,0.3,1.4c0.8,0.5,1.6,1.1,2.3,1.6c0.2,0.1,0.4,0.2,0.6,0.2  c0.3,0,0.6-0.1,0.8-0.4c0.3-0.4,0.2-1.1-0.2-1.4C77.8,70.3,76.9,69.7,76.1,69.2z"/><path d="M81.6,73.5c-0.4-0.4-1-0.4-1.4,0c-0.4,0.4-0.4,1,0,1.4c0.7,0.7,1.3,1.4,1.9,2c0.2,0.2,0.5,0.4,0.8,0.4  c0.2,0,0.4-0.1,0.6-0.2c0.4-0.4,0.5-1,0.1-1.4C83,74.9,82.3,74.2,81.6,73.5z"/><path d="M86.2,79.6c-0.1-0.2-0.2-0.4-0.3-0.6c-0.3-0.5-0.9-0.7-1.4-0.4c-0.5,0.3-0.7,0.9-0.4,1.4c0.1,0.2,0.2,0.3,0.3,0.5  c0.2,0.3,0.5,0.5,0.9,0.5c0.2,0,0.3,0,0.5-0.1C86.3,80.7,86.5,80.1,86.2,79.6z"/><path d="M47.4,56.6c-0.9-0.4-1.8-0.7-2.7-1.1c-0.5-0.2-1.1,0-1.3,0.5c-0.2,0.5,0,1.1,0.5,1.3c0.9,0.4,1.8,0.8,2.7,1.1  c0.1,0,0.2,0.1,0.4,0.1c0.4,0,0.8-0.2,0.9-0.6C48.2,57.4,47.9,56.8,47.4,56.6z"/><path d="M15.6,22.3c-0.1-0.5-0.6-0.9-1.1-0.8c-0.5,0.1-0.9,0.6-0.8,1.1c0.1,1,0.3,2,0.5,2.9c0.1,0.5,0.5,0.8,1,0.8  c0.1,0,0.1,0,0.2,0c0.5-0.1,0.9-0.6,0.8-1.2C15.9,24.2,15.8,23.3,15.6,22.3z"/><path d="M24,44.5c0.2,0,0.5-0.1,0.7-0.3c0.4-0.4,0.4-1,0.1-1.4c-0.6-0.7-1.2-1.4-1.8-2.2c-0.3-0.4-1-0.5-1.4-0.2  c-0.4,0.3-0.5,1-0.2,1.4c0.6,0.8,1.2,1.6,1.9,2.3C23.4,44.4,23.7,44.5,24,44.5z"/><path d="M28,46c-0.2-0.2-0.4-0.4-0.6-0.5c-0.4-0.4-1-0.3-1.4,0.1c-0.4,0.4-0.3,1,0.1,1.4c0.2,0.2,0.4,0.4,0.6,0.6  c0.5,0.5,1.1,0.9,1.7,1.3c0.2,0.1,0.4,0.2,0.6,0.2c0.3,0,0.6-0.1,0.8-0.4c0.3-0.4,0.2-1.1-0.2-1.4C29.1,46.9,28.5,46.4,28,46z"/><path d="M14.1,14.7c-0.6,0-1,0.5-1,1c0,1,0.1,2,0.1,3c0,0.5,0.5,0.9,1,0.9c0,0,0,0,0.1,0c0.6,0,1-0.5,0.9-1.1  c-0.1-0.9-0.1-1.9-0.1-2.9C15.1,15.1,14.6,14.7,14.1,14.7z"/><path d="M35.2,50.9c-0.9-0.5-1.7-1-2.5-1.5c-0.5-0.3-1.1-0.2-1.4,0.3c-0.3,0.5-0.2,1.1,0.3,1.4c0.8,0.5,1.7,1,2.6,1.5  c0.2,0.1,0.3,0.1,0.5,0.1c0.4,0,0.7-0.2,0.9-0.5C35.9,51.8,35.7,51.2,35.2,50.9z"/><path d="M17.7,35.9c0.4,0.9,0.9,1.8,1.4,2.6c0.2,0.3,0.5,0.5,0.9,0.5c0.2,0,0.4,0,0.5-0.1c0.5-0.3,0.6-0.9,0.3-1.4  c-0.5-0.8-0.9-1.6-1.4-2.5c-0.2-0.5-0.8-0.7-1.3-0.5C17.6,34.8,17.4,35.4,17.7,35.9z"/><path d="M17,28.8c-0.2-0.5-0.7-0.8-1.2-0.7c-0.5,0.2-0.8,0.7-0.7,1.2c0.3,1,0.6,1.9,0.9,2.8c0.2,0.4,0.5,0.6,0.9,0.6  c0.1,0,0.2,0,0.4-0.1c0.5-0.2,0.8-0.8,0.6-1.3C17.6,30.7,17.3,29.8,17,28.8z"/><path d="M41.2,53.9c-0.9-0.4-1.8-0.8-2.6-1.2c-0.5-0.2-1.1,0-1.3,0.5c-0.2,0.5,0,1.1,0.5,1.3c0.9,0.4,1.8,0.9,2.7,1.3  c0.1,0.1,0.3,0.1,0.4,0.1c0.4,0,0.7-0.2,0.9-0.6C41.9,54.7,41.7,54.1,41.2,53.9z"/><path d="M86.6,83.2c-0.5,0.1-0.9,0.7-0.7,1.2c0.2,1,0.4,2.1,0.5,3.2c0,0.5,0.5,0.9,1,0.9c0,0,0,0,0.1,0c0.6,0,1-0.5,0.9-1.1  c-0.1-1.2-0.3-2.4-0.5-3.5C87.7,83.4,87.2,83.1,86.6,83.2z"/><path d="M76,41.7V31.5l5.2,5.2c0.2,0.2,0.5,0.3,0.7,0.3c0.3,0,0.5-0.1,0.7-0.3c0.4-0.4,0.4-1,0-1.4L76,28.6v-3l5.2,5.2  c0.4,0.4,1,0.4,1.4,0c0.4-0.4,0.4-1,0-1.4L76,22.8v-3l5.2,5.2c0.4,0.4,1,0.4,1.4,0c0.4-0.4,0.4-1,0-1.4l-6.9-6.9c0,0,0,0,0,0  c-0.2-0.2-0.4-0.3-0.7-0.3s-0.5,0.1-0.7,0.3c0,0,0,0,0,0l-6.9,6.9c-0.4,0.4-0.4,1,0,1.4c0.2,0.2,0.5,0.3,0.7,0.3  c0.3,0,0.5-0.1,0.7-0.3l5.2-5.2v3l-6.6,6.6c-0.4,0.4-0.4,1,0,1.4c0.2,0.2,0.5,0.3,0.7,0.3c0.3,0,0.5-0.1,0.7-0.3l5.2-5.2v3l-6.6,6.6  c-0.4,0.4-0.4,1,0,1.4c0.4,0.4,1,0.4,1.4,0l5.2-5.2v10.2c0,0.6,0.4,1,1,1S76,42.2,76,41.7z"/><path d="M43.9,29.5c-0.4,0.4-0.4,1,0,1.4c0.4,0.4,1,0.4,1.4,0l5.2-5.2v3l-6.6,6.6c-0.4,0.4-0.4,1,0,1.4c0.2,0.2,0.5,0.3,0.7,0.3  c0.3,0,0.5-0.1,0.7-0.3l5.2-5.2v10.2c0,0.6,0.4,1,1,1s1-0.4,1-1V31.5l5.2,5.2c0.4,0.4,1,0.4,1.4,0c0.4-0.4,0.4-1,0-1.4l-6.6-6.6v-3  l5.2,5.2c0.2,0.2,0.5,0.3,0.7,0.3c0.3,0,0.5-0.1,0.7-0.3c0.4-0.4,0.4-1,0-1.4l-6.6-6.6v-3l5.2,5.2c0.2,0.2,0.5,0.3,0.7,0.3  c0.3,0,0.5-0.1,0.7-0.3c0.4-0.4,0.4-1,0-1.4l-6.9-6.9c0,0,0,0,0,0c-0.2-0.2-0.4-0.3-0.7-0.3s-0.5,0.1-0.7,0.3c0,0,0,0,0,0l-6.9,6.9  c-0.4,0.4-0.4,1,0,1.4c0.4,0.4,1,0.4,1.4,0l5.2-5.2v3L43.9,29.5z"/><path d="M27.1,70.1c0.4,0.4,1,0.4,1.4,0c0.4-0.4,0.4-1,0-1.4l-6.9-6.9c0,0,0,0,0,0c-0.2-0.2-0.4-0.3-0.7-0.3s-0.5,0.1-0.7,0.3  c0,0,0,0,0,0l-6.9,6.9c-0.4,0.4-0.4,1,0,1.4c0.2,0.2,0.5,0.3,0.7,0.3c0.3,0,0.5-0.1,0.7-0.3l5.2-5.2v3l-6.6,6.6  c-0.4,0.4-0.4,1,0,1.4c0.2,0.2,0.5,0.3,0.7,0.3c0.3,0,0.5-0.1,0.7-0.3l5.2-5.2v3l-6.6,6.6c-0.4,0.4-0.4,1,0,1.4  c0.2,0.2,0.5,0.3,0.7,0.3c0.3,0,0.5-0.1,0.7-0.3l5.2-5.2v10.2c0,0.6,0.4,1,1,1s1-0.4,1-1V76.5l5.2,5.2c0.4,0.4,1,0.4,1.4,0  c0.4-0.4,0.4-1,0-1.4l-6.6-6.6v-3l5.2,5.2c0.4,0.4,1,0.4,1.4,0c0.4-0.4,0.4-1,0-1.4l-6.6-6.6v-3L27.1,70.1z"/></svg>