<svg xmlns="http://www.w3.org/2000/svg" xmlns:xlink="http://www.w3.org/1999/xlink" version="1.1" x="0px" y="0px" viewBox="0 0 100 100" style="enable-background:new 0 0 100 100;" xml:space="preserve"><path d="M42.041,51.283c0.171,0.361,0.53,0.571,0.904,0.571c0.144,0,0.289-0.031,0.428-0.097c0.499-0.237,0.712-0.833,0.475-1.332  c-0.511-1.077-1.021-1.968-1.558-2.724c-0.32-0.45-0.943-0.555-1.395-0.235c-0.45,0.32-0.556,0.944-0.236,1.395  C41.129,49.52,41.58,50.312,42.041,51.283z"/><path d="M57.703,71.492c-0.92-0.098-1.797-0.311-2.607-0.634c-0.512-0.205-1.095,0.046-1.299,0.559  c-0.205,0.513,0.046,1.095,0.559,1.299c0.979,0.39,2.035,0.647,3.137,0.765c0.036,0.003,0.071,0.005,0.106,0.005  c0.505,0,0.938-0.381,0.993-0.895C58.65,72.042,58.252,71.55,57.703,71.492z"/><path d="M48.699,63.438c-0.33-0.779-0.676-1.668-1.055-2.717c-0.188-0.519-0.762-0.787-1.28-0.6  c-0.52,0.188-0.788,0.761-0.601,1.281c0.392,1.083,0.75,2.004,1.094,2.816c0.162,0.381,0.532,0.61,0.921,0.61  c0.131,0,0.263-0.026,0.391-0.08C48.677,64.534,48.915,63.947,48.699,63.438z"/><path d="M50.813,67.405c-0.136-0.19-0.268-0.387-0.396-0.59c-0.295-0.466-0.911-0.606-1.38-0.312  c-0.467,0.295-0.606,0.913-0.312,1.379c0.149,0.236,0.303,0.464,0.459,0.684c0.472,0.663,0.993,1.27,1.55,1.806  c0.194,0.187,0.443,0.279,0.693,0.279c0.263,0,0.524-0.103,0.721-0.307c0.383-0.398,0.37-1.031-0.027-1.414  C51.654,68.481,51.215,67.968,50.813,67.405z"/><path d="M11.062,90c0.039,0,0.078-0.002,0.117-0.007l25.842-3.045l25.842,3.045C62.901,89.998,62.94,90,62.979,90  s0.078-0.002,0.117-0.007l25.959-3.059c0.503-0.06,0.883-0.486,0.883-0.993V11c0-0.286-0.122-0.558-0.336-0.748  c-0.213-0.19-0.499-0.276-0.781-0.246l-25.842,3.045l-25.842-3.045c-0.039-0.004-0.077,0.011-0.117,0.011  c-0.04,0-0.078-0.016-0.118-0.011l-25.959,3.059c-0.503,0.06-0.883,0.486-0.883,0.993V89c0,0.286,0.122,0.558,0.336,0.748  C10.581,89.911,10.818,90,11.062,90z M12.062,84.27c0.446,0.088,0.974,0.155,1.572,0.155c0.878,0,1.894-0.142,2.971-0.564  c2.937-1.151,5.312-3.945,7.059-8.305c2.977-7.425,9.719-9.358,12.357-9.838v19.334l-23.959,2.823V84.27z M38.021,65.413  c2.252-0.522,8.028-2.762,11.609-12.238c3.237-8.564,9.917-9.557,12.35-9.625v27.618c-0.184,0.047-0.391,0.097-0.641,0.147  c-0.542,0.107-0.894,0.633-0.786,1.175c0.094,0.476,0.512,0.806,0.979,0.806c0.064,0,0.13-0.006,0.195-0.019  c0.093-0.018,0.166-0.037,0.252-0.056v14.655l-23.959-2.823V65.413z M63.979,87.875V73.22c0.086,0.019,0.159,0.038,0.252,0.056  c0.065,0.013,0.131,0.019,0.195,0.019c0.468,0,0.886-0.33,0.98-0.806c0.106-0.542-0.245-1.068-0.787-1.175  c-0.25-0.049-0.456-0.099-0.641-0.147V43.556c2.428,0.09,9.144,1.135,12.35,9.618c3.582,9.476,9.357,11.716,11.609,12.238v19.639  L63.979,87.875z M87.938,44.606c-0.276,0.056-0.548,0.128-0.812,0.224c-0.519,0.19-0.784,0.765-0.594,1.283  c0.148,0.405,0.531,0.656,0.938,0.656c0.114,0,0.23-0.02,0.345-0.062c0.04-0.015,0.082-0.021,0.122-0.034V63.35  c-1.475-0.429-4.225-1.675-6.788-5.24c0.153-0.116,0.277-0.274,0.343-0.469c0.319-0.943,0.64-1.878,0.968-2.784  c0.188-0.52-0.081-1.093-0.601-1.281c-0.519-0.186-1.092,0.081-1.28,0.6c-0.231,0.638-0.456,1.301-0.682,1.961  c-0.599-1.065-1.172-2.278-1.698-3.67c-3.622-9.582-11.354-10.794-14.221-10.903V14.948l23.959-2.823V44.606z M61.979,41.565  c-2.867,0.109-10.598,1.319-14.221,10.903c-0.526,1.392-1.099,2.604-1.698,3.669c-0.226-0.659-0.451-1.322-0.682-1.961  c-0.188-0.52-0.762-0.788-1.28-0.6c-0.52,0.188-0.788,0.761-0.601,1.281c0.328,0.906,0.648,1.841,0.968,2.784  c0.066,0.195,0.191,0.353,0.343,0.47c-2.564,3.567-5.317,4.812-6.789,5.241V46.675c0.04,0.013,0.083,0.019,0.122,0.034  c0.114,0.042,0.23,0.062,0.345,0.062c0.407,0,0.79-0.251,0.938-0.656c0.19-0.519-0.075-1.093-0.594-1.283  c-0.264-0.097-0.536-0.168-0.812-0.224V12.125l23.959,2.823V41.565z M36.021,12.125v31.968c-0.025-0.009-0.044-0.016-0.069-0.025  c-0.517-0.188-1.094,0.073-1.284,0.591c-0.192,0.518,0.072,1.093,0.591,1.285c0.299,0.111,0.545,0.197,0.763,0.271v17.475  c-2.74,0.442-10.739,2.453-14.214,11.121c-1.525,3.807-3.508,6.22-5.894,7.172c-1.661,0.662-3.095,0.444-3.852,0.237V30.58  l0.476,0.012c0.009,0,0.017,0,0.024,0c0.541,0,0.986-0.432,1-0.976c0.013-0.552-0.424-1.011-0.976-1.024l-0.524-0.013V14.948  L36.021,12.125z"/><path d="M29.272,43.047c0.757,0.48,1.599,0.952,2.503,1.4c0.143,0.071,0.294,0.104,0.443,0.104c0.368,0,0.722-0.204,0.896-0.556  c0.246-0.495,0.044-1.095-0.451-1.34c-0.841-0.418-1.622-0.854-2.319-1.297c-0.466-0.296-1.084-0.158-1.38,0.308  C28.668,42.133,28.807,42.751,29.272,43.047z"/><path d="M22.922,34.852c0.188,0.316,0.521,0.491,0.862,0.491c0.173,0,0.349-0.045,0.508-0.139c0.476-0.281,0.633-0.894,0.353-1.37  c-0.563-0.953-1.163-1.735-1.835-2.391c-0.394-0.386-1.028-0.378-1.414,0.016c-0.387,0.395-0.379,1.028,0.016,1.414  C21.956,33.405,22.45,34.052,22.922,34.852z"/><path d="M16.169,30.773c1,0.101,1.796,0.253,2.506,0.478c0.101,0.032,0.202,0.047,0.302,0.047c0.425,0,0.818-0.272,0.953-0.698  c0.167-0.527-0.125-1.089-0.651-1.255c-0.844-0.268-1.768-0.446-2.908-0.562c-0.549-0.055-1.039,0.345-1.096,0.894  C15.219,30.226,15.619,30.717,16.169,30.773z"/><path d="M24.426,38.094c0.396,0.862,0.996,1.711,1.782,2.522c0.195,0.203,0.457,0.304,0.718,0.304c0.251,0,0.502-0.094,0.696-0.282  c0.396-0.384,0.406-1.018,0.021-1.414c-0.627-0.648-1.099-1.309-1.399-1.965c-0.231-0.501-0.825-0.721-1.326-0.491  C24.416,36.998,24.195,37.592,24.426,38.094z"/><path d="M70.863,70.858c-0.811,0.323-1.688,0.536-2.607,0.634c-0.549,0.059-0.947,0.551-0.889,1.1  c0.055,0.513,0.488,0.895,0.993,0.895c0.035,0,0.07-0.002,0.106-0.005c1.102-0.117,2.157-0.375,3.137-0.765  c0.513-0.205,0.764-0.786,0.559-1.299C71.958,70.904,71.375,70.653,70.863,70.858z"/><path d="M79.596,60.121c-0.518-0.187-1.092,0.081-1.28,0.6c-0.379,1.049-0.725,1.938-1.055,2.717  c-0.215,0.508,0.022,1.095,0.53,1.311c0.128,0.054,0.26,0.08,0.391,0.08c0.389,0,0.759-0.229,0.921-0.61  c0.344-0.812,0.702-1.734,1.094-2.816C80.384,60.882,80.115,60.309,79.596,60.121z"/><path d="M76.92,66.502c-0.47-0.293-1.084-0.153-1.38,0.313c-0.128,0.203-0.26,0.399-0.396,0.59c-0.4,0.562-0.84,1.074-1.308,1.524  c-0.397,0.383-0.41,1.016-0.027,1.414c0.196,0.204,0.458,0.307,0.721,0.307c0.249,0,0.499-0.093,0.693-0.279  c0.557-0.535,1.078-1.143,1.549-1.804c0.158-0.22,0.312-0.449,0.461-0.686C77.527,67.414,77.387,66.797,76.92,66.502z"/><path d="M82.586,51.758c0.139,0.066,0.284,0.097,0.428,0.097c0.374,0,0.733-0.211,0.904-0.571c0.461-0.97,0.912-1.763,1.382-2.422  c0.319-0.45,0.214-1.075-0.236-1.395c-0.451-0.321-1.075-0.215-1.395,0.235c-0.537,0.756-1.047,1.646-1.558,2.724  C81.874,50.925,82.087,51.521,82.586,51.758z"/><path d="M71.67,32.781c-0.39,0.392-0.388,1.025,0.004,1.415c0.393,0.39,1.025,0.388,1.414-0.003l2.987-3.002v10.429  c0,0.552,0.447,1,1,1s1-0.448,1-1V31.19l2.987,3.002c0.195,0.196,0.452,0.294,0.709,0.294c0.255,0,0.51-0.097,0.705-0.291  c0.392-0.39,0.394-1.023,0.004-1.415l-4.405-4.427V26.47l2.987,3.002c0.195,0.196,0.452,0.294,0.709,0.294  c0.255,0,0.511-0.097,0.705-0.291c0.392-0.39,0.394-1.023,0.004-1.415l-4.405-4.427v-1.465l2.987,3.002  c0.195,0.196,0.452,0.294,0.709,0.294c0.255,0,0.511-0.097,0.705-0.291c0.392-0.39,0.394-1.023,0.004-1.415l-4.696-4.719  c0,0-0.001,0-0.001-0.001c-0.181-0.181-0.431-0.294-0.708-0.294s-0.527,0.112-0.708,0.294c0,0-0.001,0-0.001,0.001L71.67,23.76  c-0.39,0.392-0.388,1.025,0.004,1.415c0.391,0.39,1.025,0.388,1.414-0.003l2.987-3.002v1.465l-4.405,4.427  c-0.39,0.392-0.388,1.025,0.004,1.415c0.391,0.39,1.025,0.388,1.414-0.003l2.987-3.002v1.884L71.67,32.781z"/><path d="M26.451,49.628c0.195,0.196,0.452,0.294,0.709,0.294c0.255,0,0.511-0.097,0.705-0.291c0.392-0.39,0.394-1.023,0.004-1.415  l-4.696-4.719c0,0-0.001,0-0.001-0.001c-0.181-0.181-0.431-0.294-0.708-0.294s-0.527,0.112-0.708,0.294c0,0-0.001,0-0.001,0.001  l-4.696,4.719c-0.39,0.392-0.388,1.025,0.004,1.415c0.391,0.39,1.025,0.388,1.414-0.003l2.987-3.002v1.466l-4.405,4.427  c-0.39,0.392-0.388,1.025,0.004,1.415c0.391,0.39,1.025,0.388,1.414-0.003l2.987-3.002v1.884l-4.405,4.427  c-0.39,0.392-0.388,1.025,0.004,1.415c0.391,0.39,1.025,0.388,1.414-0.003l2.987-3.002v10.429c0,0.552,0.447,1,1,1s1-0.448,1-1  V55.646l2.987,3.002c0.195,0.196,0.452,0.294,0.709,0.294c0.255,0,0.511-0.097,0.705-0.291c0.392-0.39,0.394-1.023,0.004-1.415  l-4.405-4.427v-1.884l2.987,3.002c0.195,0.196,0.452,0.294,0.709,0.294c0.255,0,0.511-0.097,0.705-0.291  c0.392-0.39,0.394-1.023,0.004-1.415l-4.405-4.427v-1.466L26.451,49.628z"/></svg>