<svg fill="#000000" xmlns="http://www.w3.org/2000/svg" xmlns:xlink="http://www.w3.org/1999/xlink" version="1.1" x="0px" y="0px" viewBox="0 0 100 100" enable-background="new 0 0 100 100" xml:space="preserve"><path d="M8.275,64.488c-0.938-0.342-1.981,0.145-2.323,1.085c-0.482,1.326-0.798,2.65-0.941,3.938  c-0.111,0.994,0.606,1.893,1.602,2.003c0.068,0.009,0.135,0.012,0.202,0.012c0.912,0,1.696-0.687,1.8-1.612  c0.111-1.003,0.362-2.045,0.745-3.102C9.703,65.87,9.218,64.831,8.275,64.488z"></path><path d="M32.906,53.776c-2.394-1.773-5.07-2.705-7.964-2.754c-0.989-0.021-1.827,0.781-1.844,1.781  c-0.017,1.002,0.781,1.827,1.783,1.845c2.192,0.036,4.226,0.766,6.048,2.169c0.16,0.123,0.336,0.213,0.517,0.276l0.656-1.494  L32.906,53.776z"></path><path d="M16.686,53.201c-2.347,1.277-4.576,3.087-6.447,5.234c-0.658,0.754-0.58,1.899,0.176,2.558  c0.343,0.299,0.768,0.446,1.189,0.446c0.506,0,1.01-0.211,1.368-0.623c1.59-1.825,3.473-3.355,5.447-4.429  c0.879-0.478,1.205-1.58,0.726-2.459C18.667,53.049,17.567,52.724,16.686,53.201z"></path><path d="M44.342,63.438c-1.033-0.375-2.065-0.92-3.089-1.617l-0.145,0.33l-0.917,2.085l-0.417,0.949  c1.095,0.693,2.208,1.254,3.333,1.662c0.204,0.074,0.413,0.109,0.619,0.109c0.742,0,1.437-0.459,1.705-1.195  C45.77,64.819,45.285,63.78,44.342,63.438z"></path><path d="M66.316,46.697c-0.943-0.332-1.979,0.165-2.311,1.11c-0.85,2.417-1.879,4.662-3.06,6.672  c-0.507,0.863-0.22,1.974,0.645,2.481c0.288,0.17,0.604,0.25,0.916,0.25c0.622,0,1.229-0.32,1.566-0.896  c1.298-2.212,2.427-4.669,3.354-7.306C67.759,48.064,67.262,47.029,66.316,46.697z"></path><path d="M84.706,26.753c-2.881-0.75-5.877-0.464-8.72,0.83c-0.911,0.415-1.313,1.491-0.899,2.401  c0.305,0.668,0.962,1.063,1.651,1.063c0.251,0,0.506-0.053,0.749-0.164c2.084-0.949,4.226-1.164,6.302-0.621  c0.968,0.25,1.959-0.329,2.213-1.298C86.256,27.996,85.675,27.006,84.706,26.753z"></path><path d="M56.553,60.15c-1.844,1.752-3.788,2.938-5.781,3.522c-0.961,0.281-1.512,1.289-1.23,2.25  c0.232,0.791,0.955,1.303,1.739,1.303c0.17,0,0.341-0.023,0.512-0.073c2.552-0.746,4.995-2.221,7.261-4.374  c0.726-0.692,0.754-1.839,0.064-2.566C58.425,59.487,57.278,59.458,56.553,60.15z"></path><path d="M71.92,32.603c-0.786-0.619-1.926-0.483-2.546,0.302c-1.798,2.283-2.998,4.805-3.38,7.099l-0.11,0.641  c-0.177,0.985,0.478,1.928,1.464,2.105c0.107,0.019,0.216,0.028,0.321,0.028c0.861,0,1.626-0.616,1.783-1.494l0.118-0.682  c0.28-1.682,1.246-3.67,2.651-5.455C72.844,34.362,72.707,33.223,71.92,32.603z"></path><path d="M94.63,34.128c-0.823-1.083-1.682-2.067-2.551-2.926c-0.713-0.704-1.86-0.697-2.563,0.016  c-0.704,0.713-0.697,1.86,0.016,2.564c0.749,0.739,1.492,1.594,2.212,2.54c0.356,0.47,0.898,0.716,1.444,0.716  c0.383,0,0.769-0.121,1.096-0.37C95.081,36.063,95.237,34.925,94.63,34.128z"></path><path d="M44.074,28.573c-7.352,0-13.331,5.98-13.331,13.332c0,3.436,1.317,6.563,3.459,8.929c0.434,0.478,0.89,0.936,1.388,1.347  l-1.827,4.149l-1.788,4.068l-5.3,12.042c-0.806,1.834,0.027,3.974,1.859,4.781c0.474,0.209,0.97,0.309,1.459,0.309  c1.393,0,2.723-0.81,3.32-2.167l4.946-11.237l0.272-0.618l0.918-2.085l0.32-0.729l2.464-5.597c0.604,0.084,1.215,0.142,1.841,0.142  c0.026,0,0.052-0.003,0.078-0.003c7.316-0.042,13.253-6.003,13.253-13.33C57.405,34.554,51.426,28.573,44.074,28.573z   M45.819,51.445c-0.567,0.104-1.149,0.166-1.746,0.166c-0.101,0-0.2-0.013-0.303-0.017c-0.959-0.028-1.885-0.195-2.756-0.485  c-0.289-0.097-0.57-0.205-0.846-0.327c-0.278-0.123-0.549-0.256-0.813-0.404c-0.822-0.459-1.568-1.034-2.222-1.705  c-0.478-0.491-0.901-1.035-1.27-1.617c-0.939-1.495-1.494-3.258-1.494-5.152c0-5.352,4.354-9.706,9.705-9.706  c5.351,0,9.705,4.354,9.705,9.706C53.778,46.661,50.338,50.62,45.819,51.445z"></path></svg>