<svg xmlns="http://www.w3.org/2000/svg" xmlns:xlink="http://www.w3.org/1999/xlink" version="1.1" x="0px" y="0px" viewBox="0 0 100 100" style="enable-background:new 0 0 100 100;" xml:space="preserve"><style type="text/css">
	.st0{fill:none;stroke:#000000;stroke-width:2;stroke-linecap:round;stroke-linejoin:round;stroke-miterlimit:10;}
	.st1{fill:none;stroke:#000000;stroke-width:2;stroke-linecap:round;stroke-linejoin:round;}
	.st2{fill:none;stroke:#000000;stroke-width:2;stroke-linecap:round;stroke-linejoin:round;stroke-dasharray:2.9177,3.8902;}
	.st3{fill:none;stroke:#000000;stroke-width:2;stroke-linecap:round;stroke-linejoin:round;stroke-dasharray:2.9655,3.954;}
	.st4{fill:none;stroke:#000000;stroke-width:2;stroke-linecap:round;stroke-linejoin:round;stroke-dasharray:2.7633,3.6844;}
</style><path d="M15,37.1v1.7l-4,4c-0.4,0.4-0.4,1,0,1.4c0.2,0.2,0.5,0.3,0.7,0.3c0.3,0,0.5-0.1,0.7-0.3l2.6-2.6v1.7l-4,4  c-0.4,0.4-0.4,1,0,1.4c0.2,0.2,0.5,0.3,0.7,0.3c0.3,0,0.5-0.1,0.7-0.3l2.6-2.6v7.6h-3.3c-0.6,0-1,0.4-1,1s0.4,1,1,1h76.1  c0.6,0,1-0.4,1-1s-0.4-1-1-1h-1.6L70.3,24.3c-0.3-0.7-1.4-0.7-1.8,0l-7.2,13.4L46.1,9.1c-0.3-0.7-1.4-0.7-1.8,0l-24,44.8H17v-7.6  l2.6,2.6c0.4,0.4,1,0.4,1.4,0c0.4-0.4,0.4-1,0-1.4l-4-4v-1.7l2.6,2.6c0.4,0.4,1,0.4,1.4,0c0.4-0.4,0.4-1,0-1.4l-4-4v-1.7l2.6,2.6  c0.4,0.4,1,0.4,1.4,0c0.4-0.4,0.4-1,0-1.4L16.7,34l0,0c-0.1-0.1-0.2-0.2-0.3-0.2c-0.1-0.1-0.3-0.1-0.4-0.1c-0.1,0-0.3,0-0.4,0.1  c-0.1,0.1-0.2,0.1-0.3,0.2c0,0,0,0,0,0L11,38.3c-0.4,0.4-0.4,1,0,1.4c0.2,0.2,0.5,0.3,0.7,0.3c0.3,0,0.5-0.1,0.7-0.3L15,37.1z   M60.3,39.7l-7.6,14.2h-7.2v-7.6l2.6,2.6c0.4,0.4,1,0.4,1.4,0c0.4-0.4,0.4-1,0-1.4l-4-4v-1.7l2.6,2.6c0.4,0.4,1,0.4,1.4,0  c0.4-0.4,0.4-1,0-1.4l-4-4v-1.7l2.6,2.6c0.4,0.4,1,0.4,1.4,0c0.4-0.4,0.4-1,0-1.4L45.2,34l0,0c-0.2-0.2-0.4-0.3-0.7-0.3  S44,33.8,43.8,34l0,0l-4.3,4.3c-0.4,0.4-0.4,1,0,1.4c0.2,0.2,0.5,0.3,0.7,0.3c0.3,0,0.5-0.1,0.7-0.3l2.6-2.6v1.7l-4,4  c-0.4,0.4-0.4,1,0,1.4c0.2,0.2,0.5,0.3,0.7,0.3c0.3,0,0.5-0.1,0.7-0.3l2.6-2.6v1.7l-4,4c-0.4,0.4-0.4,1,0,1.4  c0.2,0.2,0.5,0.3,0.7,0.3c0.3,0,0.5-0.1,0.7-0.3l2.6-2.6v7.6H22.6l22.6-42.2l14.9,27.8C60.1,39.6,60.2,39.6,60.3,39.7z M83.9,53.9  H55l14.5-27L83.9,53.9z"/><path d="M11.7,70.8c0.6,0,1,0.4,1,1c0,2.4,2,4.4,4.4,4.4s4.4-2,4.4-4.4c0-0.6,0.4-1,1-1s1,0.4,1,1c0,2.4,2,4.4,4.4,4.4  s4.4-2,4.4-4.4c0-0.6,0.4-1,1-1s1,0.4,1,1c0,2.4,2,4.4,4.4,4.4s4.4-2,4.4-4.4c0-0.6,0.4-1,1-1s1,0.4,1,1c0,2.4,2,4.4,4.4,4.4  s4.4-2,4.4-4.4c0-0.6,0.4-1,1-1s1,0.4,1,1c0,2.4,2,4.4,4.4,4.4s4.4-2,4.4-4.4c0-0.6,0.4-1,1-1s1,0.4,1,1c0,2.4,2,4.4,4.4,4.4  s4.4-2,4.4-4.4c0-0.6,0.4-1,1-1s1,0.4,1,1c0,2.4,2,4.4,4.4,4.4s4.4-2,4.4-4.4c0-0.6,0.4-1,1-1s1,0.4,1,1c0,3.5-2.9,6.4-6.4,6.4  c-2.3,0-4.3-1.2-5.4-3c-1.1,1.8-3.1,3-5.4,3c-2.3,0-4.3-1.2-5.4-3c-1.1,1.8-3.1,3-5.4,3c-2.3,0-4.3-1.2-5.4-3c-1.1,1.8-3.1,3-5.4,3  s-4.3-1.2-5.4-3c-1.1,1.8-3.1,3-5.4,3c-2.3,0-4.3-1.2-5.4-3c-1.1,1.8-3.1,3-5.4,3c-2.3,0-4.3-1.2-5.4-3c-1.1,1.8-3.1,3-5.4,3  c-3.5,0-6.4-2.9-6.4-6.4C10.7,71.3,11.2,70.8,11.7,70.8z"/><path d="M11.7,60.1c0.6,0,1,0.4,1,1c0,2.4,2,4.4,4.4,4.4s4.4-2,4.4-4.4c0-0.6,0.4-1,1-1s1,0.4,1,1c0,2.4,2,4.4,4.4,4.4  s4.4-2,4.4-4.4c0-0.6,0.4-1,1-1s1,0.4,1,1c0,2.4,2,4.4,4.4,4.4s4.4-2,4.4-4.4c0-0.6,0.4-1,1-1s1,0.4,1,1c0,2.4,2,4.4,4.4,4.4  s4.4-2,4.4-4.4c0-0.6,0.4-1,1-1s1,0.4,1,1c0,2.4,2,4.4,4.4,4.4s4.4-2,4.4-4.4c0-0.6,0.4-1,1-1s1,0.4,1,1c0,2.4,2,4.4,4.4,4.4  s4.4-2,4.4-4.4c0-0.6,0.4-1,1-1s1,0.4,1,1c0,2.4,2,4.4,4.4,4.4s4.4-2,4.4-4.4c0-0.6,0.4-1,1-1s1,0.4,1,1c0,3.5-2.9,6.4-6.4,6.4  c-2.3,0-4.3-1.2-5.4-3c-1.1,1.8-3.1,3-5.4,3c-2.3,0-4.3-1.2-5.4-3c-1.1,1.8-3.1,3-5.4,3c-2.3,0-4.3-1.2-5.4-3c-1.1,1.8-3.1,3-5.4,3  s-4.3-1.2-5.4-3c-1.1,1.8-3.1,3-5.4,3c-2.3,0-4.3-1.2-5.4-3c-1.1,1.8-3.1,3-5.4,3c-2.3,0-4.3-1.2-5.4-3c-1.1,1.8-3.1,3-5.4,3  c-3.5,0-6.4-2.9-6.4-6.4C10.7,60.5,11.2,60.1,11.7,60.1z"/><path d="M11.7,81.1c0.6,0,1,0.4,1,1c0,2.4,2,4.4,4.4,4.4s4.4-2,4.4-4.4c0-0.6,0.4-1,1-1s1,0.4,1,1c0,2.4,2,4.4,4.4,4.4  s4.4-2,4.4-4.4c0-0.6,0.4-1,1-1s1,0.4,1,1c0,2.4,2,4.4,4.4,4.4s4.4-2,4.4-4.4c0-0.6,0.4-1,1-1s1,0.4,1,1c0,2.4,2,4.4,4.4,4.4  s4.4-2,4.4-4.4c0-0.6,0.4-1,1-1s1,0.4,1,1c0,2.4,2,4.4,4.4,4.4s4.4-2,4.4-4.4c0-0.6,0.4-1,1-1s1,0.4,1,1c0,2.4,2,4.4,4.4,4.4  s4.4-2,4.4-4.4c0-0.6,0.4-1,1-1s1,0.4,1,1c0,2.4,2,4.4,4.4,4.4s4.4-2,4.4-4.4c0-0.6,0.4-1,1-1s1,0.4,1,1c0,3.5-2.9,6.4-6.4,6.4  c-2.3,0-4.3-1.2-5.4-3c-1.1,1.8-3.1,3-5.4,3c-2.3,0-4.3-1.2-5.4-3c-1.1,1.8-3.1,3-5.4,3c-2.3,0-4.3-1.2-5.4-3c-1.1,1.8-3.1,3-5.4,3  s-4.3-1.2-5.4-3c-1.1,1.8-3.1,3-5.4,3c-2.3,0-4.3-1.2-5.4-3c-1.1,1.8-3.1,3-5.4,3c-2.3,0-4.3-1.2-5.4-3c-1.1,1.8-3.1,3-5.4,3  c-3.5,0-6.4-2.9-6.4-6.4C10.7,81.5,11.2,81.1,11.7,81.1z"/></svg>