<svg height="511pt" viewBox="0 0 511 511.99986" width="511pt" xmlns="http://www.w3.org/2000/svg"><path d="m76.492188 271.019531h-30.996094c-24.8125 0-44.996094-20.183593-44.996094-44.996093s20.183594-44.996094 44.996094-44.996094h60.996094c8.289062 0 14.996093 6.707031 14.996093 15 0 8.289062-6.707031 14.996094-14.996093 14.996094h-60.996094c-8.273438 0-15 6.722656-15 15 0 8.273437 6.726562 15 15 15h30.996094c8.292968 0 15 6.707031 15 14.996093 0 8.292969-6.707032 15-15 15zm0 0" fill="#68544f"/><path d="m389.367188 356.214844-57.894532 29.09375v111.691406c0 8.402344-6.597656 15-15 15h-59.992187c-8.402344 0-15-6.597656-15-15v-225.980469h133.1875zm0 0" fill="#ae774e"/><path d="m389.367188 356.214844-57.894532 29.09375v111.691406c0 8.402344-6.597656 15-15 15h-29.996094v-240.980469h88.191407zm0 0" fill="#895d3c"/><path d="m451.464844 325.015625v35.996094h14.996094c8.402343 0 15 6.597656 15 15v29.996093c0 8.402344-6.597657 15-15 15-8.398438 0-14.996094-6.597656-14.996094-15v-14.996093h-15c-41.398438 0-74.996094-33.597657-74.996094-74.996094v-15l-68.691406 26.699219c-1.800782 4.199218-3.898438 8.097656-6.300782 12-15.898437 27.296875-43.496093 45.59375-74.992187 50.09375v107.191406c0 8.402344-6.601563 15-15 15h-59.996094c-8.398437 0-15-6.597656-15-15v-180.984375c0-8.402344 6.601563-15 15-15h15v-10.496094l-57.59375-86.09375c-6.300781-9.601562.898438-23.398437 12.597657-23.398437h254.976562v-59.996094h119.992188v136.488281zm0 0" fill="#68544f"/><path d="m451.464844 325.015625v35.996094h14.996094c8.402343 0 15 6.597656 15 15v29.996093c0 8.402344-6.597657 15-15 15-8.398438 0-14.996094-6.597656-14.996094-15v-14.996093h-15c-41.398438 0-74.996094-33.597657-74.996094-74.996094v-15l-68.691406 26.699219c-1.800782 4.199218-3.898438 8.097656-6.300782 12v-158.6875h74.992188v-59.996094h119.992188v136.488281zm0 0" fill="#53433f"/><path d="m422.578125 4.230469c-72.808594 27.417969-69.613281 25.816406-75.726563 28.726562-.015624.011719-.042968.011719-.058593.027344-27.535157 13.210937-45.316407 41.496094-45.316407 72.050781 0 24.8125 20.183594 45.996094 44.996094 45.996094 24.183594 0 110.347656 0 104.992188 0v173.507812c37.121094-22.261718 60.992187-61.746093 60.992187-105.589843v-153.125c0-45.769531-46.875-77.710938-89.878906-61.59375zm0 0" fill="#895d3c"/><path d="m451.464844 75.035156c0 8.285156-6.71875 15-15 15-8.285156 0-15-6.714844-15-15 0-8.28125 6.714844-15 15-15 8.28125 0 15 6.71875 15 15zm0 0" fill="#53433f"/></svg>