<?xml version="1.0" encoding="iso-8859-1"?>
<!-- Generator: Adobe Illustrator 18.1.1, SVG Export Plug-In . SVG Version: 6.00 Build 0)  -->
<svg xmlns="http://www.w3.org/2000/svg" xmlns:xlink="http://www.w3.org/1999/xlink" version="1.1" id="Capa_1" x="0px" y="0px" viewBox="0 0 21.92 21.92" style="enable-background:new 0 0 21.92 21.92;" xml:space="preserve" width="512px" height="512px">
<g>
	<path d="M20.883,21.821L7.991,20.604c0,0-1.725,0.047-0.762-0.914c0.961-0.963,3.287-3.289,3.287-3.289s-0.566-0.568-1.432-1.432   C6.6,12.483,2.082,7.965,0.248,6.127c0,0-0.633-0.367,0.125-1.125c0.76-0.762,4.09-4.09,4.631-4.631   C5.543-0.172,5.95,0.262,5.95,0.262c1.785,1.787,6.459,6.457,8.857,8.857c0.777,0.779,1.283,1.287,1.283,1.287   s1.871-1.867,3.041-3.043c1.172-1.17,1.164,0.59,1.164,0.59s1.625,11.561,1.625,12.945C21.924,21.903,20.883,21.821,20.883,21.821z   " fill="#006DF0"/>
	<g>
	</g>
	<g>
	</g>
	<g>
	</g>
	<g>
	</g>
	<g>
	</g>
	<g>
	</g>
	<g>
	</g>
	<g>
	</g>
	<g>
	</g>
	<g>
	</g>
	<g>
	</g>
	<g>
	</g>
	<g>
	</g>
	<g>
	</g>
	<g>
	</g>
</g>
<g>
</g>
<g>
</g>
<g>
</g>
<g>
</g>
<g>
</g>
<g>
</g>
<g>
</g>
<g>
</g>
<g>
</g>
<g>
</g>
<g>
</g>
<g>
</g>
<g>
</g>
<g>
</g>
<g>
</g>
</svg>
