<svg viewBox="0 0 211.32 241.21" xmlns="http://www.w3.org/2000/svg"><path d="m210.68 115.34c-.48-40.13-.74-61.58-16.68-81.67-29.09-36.67-82.5-33.58-97.18-32.73-19.4 1.13-70.13 4.17-89.1 42.45-10.9 22-10 53.05 6.57 72.63 15.28 18 38.16 19.58 75.59 21.55a327.44 327.44 0 0 0 99.49-10.33 109.94 109.94 0 0 1 8.08 39.85c.19 14.54.6 40.29-17.82 58.09-10.69 10.32-23.69 14.08-32.89 15.5 8.19.23 19.35-.77 30-6.87 35.62-20.41 34.4-80.29 33.94-118.47z" fill="#fff" stroke="#000" stroke-miterlimit="10"/></svg>