<svg xmlns="http://www.w3.org/2000/svg" viewBox="0 0 180.13 185.85"><defs><style>.cls-1{fill:none;stroke:#1d1d1b;stroke-miterlimit:10;}</style></defs><title>Asset 3</title><g id="Layer_2" data-name="Layer 2"><g id="Layer_2-2" data-name="Layer 2"><path class="cls-1" d="M176.18,52.72c-3.84-16.91-8.35-47.28-32.51-40a135.07,135.07,0,0,0-14.42,5.57l-1.13.49-.06-.09-1.33.56-2-3.21c-3.87-5.74-9.17-9.67-13.52-14.84-.64,4.83,1.85,11.2,2.44,16.16-5.4-3.28-10.67-7.1-16.3-9.78C95.91,12.41,95,18.81,96,23.85c-5.81-3.05-13.26-4.8-19.34-6.63-.89,4.69-2.58,12.48-1.16,17.26-6.18-1.79-11.74-4.5-17.75-6.41a59.23,59.23,0,0,0,5.76,17c-3.35,1.64-10-1.35-13.72-2-5-.91-9.59-2.63-14.53-3.83-.45,5.56,3.05,10.8,5.92,15.34,1.53,2.42,4.54,5.35,5.65,8.39-.76,1.08-1.5,2.17-2.21,3.29-8.16-.74-16.3-1.6-24.76-1.73,5.16,5.45,12.4,9.66,18.3,14.74Q37,82.47,36,85.77c-7.21,3.31-20.24,3-25.68,4.84,5.65,6.63,15.38,9,22.26,14.1l-1.22,4.08c-4.21,1.12-8.47,2.11-12.62,3.21,2.1,3.79,7.53,5.12,12.15,5.86l.14,3.09c-4.8,2.83-10.22,4.75-14.86,8s-8,8.67-13.46,10.74c3.15,2.34,23.76,3.67,30.13,7.4.17,1.52.33,3,.51,4.54-4,3.5-15.31,7.45-17.8,8.82-5,2.74-11.23,4.39-14.83,9,10,5.19,28,2.72,40.38,3.06.24.73.47,1.46.73,2.17.34,0,.67.07,1,.12,3.67,6.3,9.73,10.46,20.3,10.58,17.94.21,36.4-1.8,48-7.24.51-.24,7-3.76,7-3.76-1.43-3.44-2.55-7.75-4-11.5-5.68-14.73-9.18-35.36,10-40.39,15.22-4,37.77,2.68,44.45-15.51-6.57-1.68-14.7-.42-21.56-1.1-8.79-.86-20.74-2.14-29.24.54,14.71-7,30.44-10.3,44.47-19,5.85-3.63,13.42-8.49,16.39-15C181.39,66.45,177.54,58.7,176.18,52.72Z"/></g></g></svg>