<svg xmlns="http://www.w3.org/2000/svg" xmlns:xlink="http://www.w3.org/1999/xlink" version="1.1" x="0px" y="0px" viewBox="0 0 100 100" style="enable-background:new 0 0 100 100;" xml:space="preserve"><style type="text/css">
	.st0{fill:none;stroke:#000000;stroke-width:2;stroke-linecap:round;stroke-linejoin:round;stroke-miterlimit:10;}
	.st1{fill:none;stroke:#000000;stroke-width:2;stroke-linecap:round;stroke-linejoin:round;}
	.st2{fill:none;stroke:#000000;stroke-width:2;stroke-linecap:round;stroke-linejoin:round;stroke-dasharray:2.9177,3.8902;}
	.st3{fill:none;stroke:#000000;stroke-width:2;stroke-linecap:round;stroke-linejoin:round;stroke-dasharray:2.9655,3.954;}
	.st4{fill:none;stroke:#000000;stroke-width:2;stroke-linecap:round;stroke-linejoin:round;stroke-dasharray:2.7633,3.6844;}
</style><path d="M71.7,46.2c0.5,0.3,0.6,0.9,0.3,1.4c-0.6,0.8-1.2,1.7-1.8,2.4c-0.2,0.2-0.5,0.4-0.8,0.4c-0.2,0-0.4-0.1-0.6-0.2  c-0.4-0.3-0.5-1-0.1-1.4c0.6-0.7,1.1-1.5,1.7-2.3C70.6,46,71.3,45.9,71.7,46.2z"/><path d="M61.9,57.1c-0.8,0.5-1.7,1-2.6,1.5c-0.2,0.1-0.3,0.1-0.5,0.1c-0.4,0-0.7-0.2-0.9-0.5c-0.3-0.5-0.1-1.1,0.4-1.4  c0.9-0.5,1.7-0.9,2.5-1.4c0.5-0.3,1.1-0.1,1.4,0.3C62.5,56.2,62.3,56.8,61.9,57.1z"/><path d="M76.4,31.5c-0.6,0-1-0.5-0.9-1.1c0.1-0.9,0.1-1.9,0.1-2.9c0-0.5,0.5-1,1-1c0,0,0,0,0,0c0.6,0,1,0.5,1,1c0,1-0.1,2-0.2,3  C77.4,31.1,77,31.5,76.4,31.5C76.5,31.5,76.4,31.5,76.4,31.5z"/><path d="M74,44.1c-0.2,0.4-0.5,0.6-0.9,0.6c-0.1,0-0.3,0-0.4-0.1c-0.5-0.2-0.7-0.8-0.5-1.3c0.4-0.8,0.8-1.7,1.1-2.6  c0.2-0.5,0.8-0.8,1.3-0.6c0.5,0.2,0.8,0.8,0.6,1.3C74.8,42.2,74.4,43.2,74,44.1z"/><path d="M66.3,53.9c-0.4,0.3-0.8,0.6-1.2,0.9c-0.2,0.1-0.4,0.2-0.6,0.2c-0.3,0-0.6-0.1-0.8-0.4c-0.3-0.4-0.3-1.1,0.2-1.4  c0.4-0.3,0.7-0.6,1.1-0.9c0.4-0.3,0.7-0.6,1-0.9c0.4-0.4,1-0.4,1.4,0c0.4,0.4,0.4,1,0,1.4C67.1,53.3,66.7,53.6,66.3,53.9z"/><path d="M55.8,60.4c-0.9,0.4-1.8,0.8-2.7,1.2c-0.1,0.1-0.3,0.1-0.4,0.1c-0.4,0-0.8-0.2-0.9-0.6c-0.2-0.5,0-1.1,0.5-1.3  c0.9-0.4,1.8-0.8,2.6-1.2c0.5-0.2,1.1,0,1.3,0.5C56.5,59.6,56.3,60.2,55.8,60.4z"/><path d="M25.2,72.9c0.3,0.4,0.2,1.1-0.2,1.4c-0.8,0.6-1.5,1.2-2.2,1.8c-0.2,0.2-0.4,0.3-0.7,0.3c-0.3,0-0.5-0.1-0.7-0.3  c-0.4-0.4-0.3-1,0.1-1.4c0.7-0.7,1.5-1.3,2.3-1.9C24.2,72.3,24.9,72.4,25.2,72.9z"/><path d="M17.1,80.1c0.4-0.9,1-1.7,1.6-2.5c0.3-0.4,1-0.5,1.4-0.2c0.4,0.3,0.5,1,0.2,1.4c-0.5,0.7-1,1.5-1.4,2.3  c-0.2,0.3-0.5,0.5-0.9,0.5c-0.2,0-0.3,0-0.5-0.1C17.1,81.2,16.9,80.6,17.1,80.1z"/><path d="M29.8,69.1c0.5-0.2,1.1-0.1,1.3,0.4c0.2,0.5,0.1,1.1-0.4,1.3c-0.9,0.5-1.7,0.9-2.5,1.4c-0.2,0.1-0.3,0.1-0.5,0.1  c-0.3,0-0.7-0.2-0.9-0.5c-0.3-0.5-0.1-1.1,0.4-1.4C28,70,28.8,69.5,29.8,69.1z"/><path d="M36,66.2c0.5-0.2,1.1,0,1.3,0.5c0.2,0.5,0,1.1-0.5,1.3c-0.9,0.4-1.8,0.8-2.7,1.1c-0.1,0.1-0.3,0.1-0.4,0.1  c-0.4,0-0.7-0.2-0.9-0.6c-0.2-0.5,0-1.1,0.5-1.3C34.2,67,35.1,66.6,36,66.2z"/><path d="M48.7,61.2c0.5-0.2,1.1,0,1.3,0.6c0.2,0.5,0,1.1-0.6,1.3c-0.9,0.4-1.8,0.7-2.7,1.1c-0.1,0-0.2,0.1-0.4,0.1  c-0.4,0-0.8-0.2-0.9-0.6c-0.2-0.5,0.1-1.1,0.6-1.3C46.9,62,47.8,61.6,48.7,61.2z"/><path d="M42.4,63.7c0.5-0.2,1.1,0.1,1.3,0.6c0.2,0.5-0.1,1.1-0.6,1.3c-0.9,0.3-1.8,0.7-2.7,1.1c-0.1,0-0.2,0.1-0.4,0.1  c-0.4,0-0.8-0.2-0.9-0.6c-0.2-0.5,0.1-1.1,0.6-1.3C40.6,64.4,41.5,64.1,42.4,63.7z"/><path d="M75.4,38.2c-0.1,0-0.2,0-0.2,0c-0.5-0.1-0.9-0.7-0.7-1.2c0.2-0.9,0.4-1.8,0.6-2.8c0.1-0.5,0.6-0.9,1.2-0.8  c0.5,0.1,0.9,0.6,0.8,1.2c-0.2,1-0.4,2-0.6,2.9C76.2,37.9,75.8,38.2,75.4,38.2z"/><path d="M17.3,86.8c0,0.5-0.5,0.9-1,0.9c0,0,0,0-0.1,0c-0.6,0-1-0.5-0.9-1.1c0.1-1,0.2-2,0.4-2.9c0.1-0.5,0.7-0.9,1.2-0.7  c0.5,0.1,0.9,0.7,0.7,1.2C17.5,85,17.4,85.9,17.3,86.8z"/><path d="M81.7,23.2c-0.2,0.2-0.5,0.3-0.7,0.3s-0.5-0.1-0.7-0.3l-3.6-3.6L73,23.2c-0.2,0.2-0.5,0.3-0.7,0.3s-0.5-0.1-0.7-0.3  c-0.4-0.4-0.4-1,0-1.4l3.6-3.6l-3.6-3.6c-0.4-0.4-0.4-1,0-1.4s1-0.4,1.4,0l3.6,3.6l3.6-3.6c0.4-0.4,1-0.4,1.4,0s0.4,1,0,1.4L78,18.2  l3.6,3.6C82,22.2,82,22.8,81.7,23.2z"/><path d="M30.2,31.1c0.4,0.4,0.4,1,0,1.4c-0.2,0.2-0.5,0.3-0.7,0.3c-0.3,0-0.5-0.1-0.7-0.3l-5.2-5.2v10.2c0,0.6-0.4,1-1,1s-1-0.4-1-1  V27.3l-5.2,5.2c-0.4,0.4-1,0.4-1.4,0s-0.4-1,0-1.4l6.6-6.6v-3l-5.2,5.2C16.2,27,15.9,27,15.7,27c-0.3,0-0.5-0.1-0.7-0.3  c-0.4-0.4-0.4-1,0-1.4l6.6-6.6v-3L16.4,21c-0.4,0.4-1,0.4-1.4,0s-0.4-1,0-1.4l6.9-6.9c0,0,0,0,0,0c0.2-0.2,0.4-0.3,0.7-0.3  s0.5,0.1,0.7,0.3c0,0,0,0,0,0l6.9,6.9c0.4,0.4,0.4,1,0,1.4c-0.2,0.2-0.5,0.3-0.7,0.3c-0.3,0-0.5-0.1-0.7-0.3l-5.2-5.2v3l6.6,6.6  c0.4,0.4,0.4,1,0,1.4c-0.4,0.4-1,0.4-1.4,0l-5.2-5.2v3L30.2,31.1z"/><path d="M53.7,31.1c0.4,0.4,0.4,1,0,1.4c-0.4,0.4-1,0.4-1.4,0L47,27.3v10.2c0,0.6-0.4,1-1,1s-1-0.4-1-1V27.3l-5.2,5.2  c-0.2,0.2-0.5,0.3-0.7,0.3c-0.3,0-0.5-0.1-0.7-0.3c-0.4-0.4-0.4-1,0-1.4l6.6-6.6v-3l-5.2,5.2c-0.4,0.4-1,0.4-1.4,0  c-0.4-0.4-0.4-1,0-1.4l6.6-6.6v-3L39.9,21c-0.2,0.2-0.5,0.3-0.7,0.3c-0.3,0-0.5-0.1-0.7-0.3c-0.4-0.4-0.4-1,0-1.4l6.9-6.9  c0,0,0,0,0,0c0.1-0.1,0.2-0.2,0.3-0.2c0.1-0.1,0.3-0.1,0.4-0.1s0.3,0,0.4,0.1c0.1,0.1,0.2,0.1,0.3,0.2c0,0,0,0,0,0l6.9,6.9  c0.4,0.4,0.4,1,0,1.4c-0.4,0.4-1,0.4-1.4,0L47,15.7v3l6.6,6.6c0.4,0.4,0.4,1,0,1.4C53.5,27,53.2,27,52.9,27c-0.3,0-0.5-0.1-0.7-0.3  L47,21.5v3L53.7,31.1z"/><path d="M84.2,79.2c0.4,0.4,0.4,1,0,1.4c-0.2,0.2-0.5,0.3-0.7,0.3c-0.3,0-0.5-0.1-0.7-0.3l-5.2-5.2v10.2c0,0.6-0.4,1-1,1s-1-0.4-1-1  V75.4l-5.2,5.2c-0.4,0.4-1,0.4-1.4,0c-0.4-0.4-0.4-1,0-1.4l6.6-6.6v-3l-5.2,5.2c-0.4,0.4-1,0.4-1.4,0c-0.4-0.4-0.4-1,0-1.4l6.6-6.6  v-3L70.4,69c-0.4,0.4-1,0.4-1.4,0c-0.4-0.4-0.4-1,0-1.4l6.9-6.9c0,0,0,0,0,0c0.2-0.2,0.4-0.3,0.7-0.3s0.5,0.1,0.7,0.3c0,0,0,0,0,0  l6.9,6.9c0.4,0.4,0.4,1,0,1.4c-0.2,0.2-0.5,0.3-0.7,0.3c-0.3,0-0.5-0.1-0.7-0.3l-5.2-5.2v3l6.6,6.6c0.4,0.4,0.4,1,0,1.4  c-0.2,0.2-0.5,0.3-0.7,0.3c-0.3,0-0.5-0.1-0.7-0.3l-5.2-5.2v3L84.2,79.2z"/><path d="M40.2,46c0-0.6,0.4-1,1-1s1,0.4,1,1c0,0.9,0.7,1.7,1.7,1.7s1.7-0.7,1.7-1.7c0-0.6,0.4-1,1-1s1,0.4,1,1  c0,0.9,0.7,1.7,1.7,1.7s1.7-0.7,1.7-1.7c0-0.6,0.4-1,1-1s1,0.4,1,1c0,2-1.6,3.7-3.7,3.7c-1,0-2-0.4-2.7-1.2  c-0.7,0.7-1.6,1.2-2.7,1.2s-2-0.4-2.7-1.2c-0.7,0.7-1.6,1.2-2.7,1.2s-2-0.4-2.7-1.2c-0.7,0.7-1.6,1.2-2.7,1.2c-1,0-2-0.4-2.7-1.2  c-0.7,0.7-1.6,1.2-2.7,1.2s-2-0.4-2.7-1.2c-0.7,0.7-1.6,1.2-2.7,1.2c-1,0-2-0.4-2.7-1.2c-0.7,0.7-1.6,1.2-2.7,1.2  c-2,0-3.7-1.6-3.7-3.7c0-0.6,0.4-1,1-1s1,0.4,1,1c0,0.9,0.7,1.7,1.7,1.7S19,46.9,19,46c0-0.6,0.4-1,1-1s1,0.4,1,1  c0,0.9,0.7,1.7,1.7,1.7s1.7-0.7,1.7-1.7c0-0.6,0.4-1,1-1s1,0.4,1,1c0,0.9,0.7,1.7,1.7,1.7s1.7-0.7,1.7-1.7c0-0.6,0.4-1,1-1  s1,0.4,1,1c0,0.9,0.7,1.7,1.7,1.7s1.7-0.7,1.7-1.7c0-0.6,0.4-1,1-1s1,0.4,1,1c0,0.9,0.7,1.7,1.7,1.7S40.2,46.9,40.2,46z"/></svg>