<svg xmlns="http://www.w3.org/2000/svg" xmlns:xlink="http://www.w3.org/1999/xlink" version="1.1" fill="#224568" x="0px" y="0px" viewBox="0 0 100 100" enable-background="new 0 0 100 100" xml:space="preserve"><rect x="38.544" y="64.096" width="3.167" height="3.166"/><rect x="38.544" y="67.262" width="3.167" height="3.166"/><rect x="41.71" y="64.096" width="3.166" height="3.166"/><rect x="44.876" y="57.764" width="3.166" height="3.166"/><rect x="44.876" y="60.93" width="3.166" height="3.166"/><rect x="48.042" y="57.764" width="3.167" height="3.166"/><rect x="57.542" y="22.949" width="3.166" height="3.166"/><rect x="35.377" y="54.598" width="3.166" height="3.166"/><rect x="57.542" y="16.617" width="3.166" height="3.166"/><rect x="44.876" y="70.437" width="3.166" height="3.166"/><rect x="60.734" y="73.607" width="3.166" height="3.166"/><rect x="54.375" y="22.949" width="3.166" height="3.166"/><rect x="51.209" y="64.096" width="3.166" height="3.166"/><rect x="51.209" y="67.262" width="3.166" height="3.166"/><rect x="51.209" y="57.764" width="3.166" height="3.166"/><rect x="51.209" y="60.93" width="3.166" height="3.166"/><rect x="51.209" y="70.428" width="3.166" height="3.166"/><rect x="51.209" y="54.598" width="3.166" height="3.166"/><rect x="51.209" y="51.432" width="3.166" height="3.166"/><rect x="51.209" y="48.266" width="3.166" height="3.166"/><rect x="51.209" y="45.1" width="3.166" height="3.166"/><rect x="48.042" y="51.432" width="3.167" height="3.166"/><rect x="48.042" y="67.262" width="3.167" height="3.166"/><rect x="48.042" y="64.096" width="3.167" height="3.166"/><rect x="44.876" y="67.262" width="3.166" height="3.166"/><rect x="44.876" y="64.096" width="3.166" height="3.166"/><rect x="48.042" y="70.428" width="3.166" height="3.166"/><rect x="41.709" y="70.428" width="3.166" height="3.166"/><rect x="38.543" y="70.428" width="3.166" height="3.166"/><rect x="48.042" y="54.598" width="3.167" height="3.166"/><rect x="48.042" y="60.93" width="3.167" height="3.166"/><rect x="41.708" y="67.262" width="3.166" height="3.166"/><rect x="54.379" y="57.764" width="3.166" height="3.166"/><rect x="54.379" y="60.93" width="3.166" height="3.166"/><rect x="54.379" y="54.598" width="3.166" height="3.166"/><rect x="57.545" y="57.764" width="3.166" height="3.166"/><rect x="60.711" y="64.096" width="3.166" height="3.166"/><rect x="60.711" y="67.262" width="3.166" height="3.166"/><rect x="60.711" y="57.765" width="3.166" height="3.165"/><rect x="60.711" y="60.93" width="3.166" height="3.166"/><rect x="60.711" y="70.428" width="3.166" height="3.166"/><rect x="60.711" y="54.599" width="3.166" height="3.166"/><rect x="60.711" y="51.432" width="3.166" height="3.166"/><rect x="60.711" y="48.267" width="3.166" height="3.165"/><rect x="60.711" y="45.1" width="3.166" height="3.166"/><rect x="60.711" y="41.935" width="3.166" height="3.166"/><rect x="57.545" y="51.432" width="3.166" height="3.166"/><rect x="57.545" y="48.267" width="3.166" height="3.165"/><rect x="54.379" y="51.432" width="3.166" height="3.166"/><rect x="54.379" y="48.267" width="3.166" height="3.165"/><rect x="57.545" y="67.262" width="3.166" height="3.166"/><rect x="57.545" y="64.096" width="3.166" height="3.166"/><rect x="54.379" y="67.262" width="3.166" height="3.166"/><rect x="54.379" y="64.096" width="3.166" height="3.166"/><rect x="57.545" y="45.1" width="3.166" height="3.166"/><rect x="57.545" y="41.935" width="3.166" height="3.166"/><rect x="54.379" y="45.1" width="3.166" height="3.166"/><rect x="54.379" y="41.935" width="3.166" height="3.166"/><rect x="57.545" y="54.599" width="3.166" height="3.166"/><rect x="57.545" y="60.93" width="3.166" height="3.166"/><rect x="57.543" y="38.769" width="3.166" height="3.166"/><rect x="57.543" y="35.603" width="3.166" height="3.166"/><rect x="54.375" y="38.769" width="3.166" height="3.166"/><rect x="63.881" y="57.764" width="3.166" height="3.166"/><rect x="63.881" y="60.93" width="3.166" height="3.166"/><rect x="63.881" y="54.598" width="3.166" height="3.166"/><rect x="67.047" y="57.764" width="3.166" height="3.166"/><rect x="63.881" y="51.432" width="3.166" height="3.166"/><rect x="63.881" y="48.266" width="3.166" height="3.166"/><rect x="67.047" y="67.262" width="3.166" height="3.166"/><rect x="67.047" y="64.096" width="3.166" height="3.166"/><rect x="63.881" y="67.262" width="3.166" height="3.166"/><rect x="63.881" y="64.096" width="3.166" height="3.166"/><rect x="63.879" y="70.428" width="3.166" height="3.166"/><rect x="67.047" y="54.598" width="3.166" height="3.166"/><rect x="67.047" y="60.93" width="3.166" height="3.166"/><rect x="57.545" y="70.428" width="3.166" height="3.166"/><rect x="54.379" y="70.428" width="3.166" height="3.166"/><rect x="48.022" y="83.102" width="3.166" height="3.166"/><rect x="51.191" y="79.932" width="3.166" height="3.166"/><rect x="60.711" y="16.609" width="3.166" height="3.166"/><rect x="60.711" y="19.775" width="3.166" height="3.166"/><rect x="60.711" y="22.941" width="3.166" height="3.166"/><rect x="63.877" y="19.775" width="3.166" height="3.166"/><rect x="63.877" y="22.941" width="3.166" height="3.166"/><rect x="63.877" y="16.609" width="3.166" height="3.166"/><rect x="67.043" y="19.775" width="3.166" height="3.166"/><rect x="70.21" y="19.775" width="3.166" height="3.166"/><rect x="70.21" y="22.941" width="3.166" height="3.166"/><rect x="70.21" y="16.609" width="3.166" height="3.166"/><rect x="67.043" y="16.609" width="3.166" height="3.166"/><rect x="67.043" y="22.941" width="3.166" height="3.166"/><rect x="32.21" y="60.938" width="3.167" height="3.166"/><rect x="32.21" y="64.104" width="3.167" height="3.166"/><rect x="32.21" y="57.772" width="3.167" height="3.166"/><rect x="35.376" y="60.938" width="3.166" height="3.166"/><rect x="35.376" y="57.773" width="3.166" height="3.166"/><rect x="35.376" y="64.104" width="3.166" height="3.166"/><rect x="54.379" y="29.272" width="3.166" height="3.166"/><rect x="54.379" y="32.438" width="3.166" height="3.166"/><rect x="54.379" y="26.106" width="3.166" height="3.166"/><rect x="57.545" y="29.272" width="3.166" height="3.166"/><rect x="60.711" y="26.106" width="3.166" height="3.166"/><rect x="57.545" y="26.106" width="3.166" height="3.166"/><rect x="57.545" y="32.438" width="3.166" height="3.166"/><rect x="63.879" y="26.106" width="3.166" height="3.166"/><rect x="54.375" y="19.78" width="3.166" height="3.166"/><rect x="35.376" y="67.27" width="3.166" height="3.166"/><rect x="35.376" y="70.435" width="3.166" height="3.166"/><rect x="54.375" y="35.606" width="3.166" height="3.166"/><rect x="57.524" y="83.107" width="3.166" height="3.166"/><rect x="48.021" y="79.931" width="3.166" height="3.166"/><rect x="51.188" y="76.766" width="3.166" height="3.166"/><rect x="51.188" y="73.6" width="3.166" height="3.166"/><rect x="48.021" y="73.6" width="3.167" height="3.166"/><rect x="48.021" y="76.766" width="3.167" height="3.166"/><rect x="32.21" y="67.269" width="3.166" height="3.166"/><rect x="54.352" y="83.107" width="3.167" height="3.166"/><rect x="54.354" y="79.936" width="3.166" height="3.166"/><rect x="51.186" y="83.107" width="3.166" height="3.166"/><rect x="57.524" y="73.606" width="3.166" height="3.166"/><rect x="54.357" y="73.606" width="3.166" height="3.166"/><rect x="54.357" y="76.772" width="3.166" height="3.166"/><rect x="54.378" y="16.617" width="3.166" height="3.166"/><rect x="57.524" y="13.451" width="3.166" height="3.166"/><rect x="29.043" y="54.607" width="3.166" height="3.166"/><rect x="32.209" y="54.609" width="3.167" height="3.166"/><rect x="25.875" y="54.611" width="3.166" height="3.166"/><text x="0" y="115" fill="#000000" font-size="5px" font-weight="bold" font-family="'Helvetica Neue', Helvetica, Arial-Unicode, Arial, Sans-serif">Created by Sumana Chamrunworakiat</text><text x="0" y="120" fill="#000000" font-size="5px" font-weight="bold" font-family="'Helvetica Neue', Helvetica, Arial-Unicode, Arial, Sans-serif">from the Noun Project</text></svg>